<svg width="18" height="18" viewBox="0 0 18 18" fill="none" xmlns="http://www.w3.org/2000/svg">
<path d="M3 16.05V1.95C3 1.70147 3.20147 1.5 3.45 1.5H12.1886C12.3079 1.5 12.4224 1.54741 12.5068 1.63181L14.8682 3.9932C14.9526 4.07759 15 4.19205 15 4.3114V16.05C15 16.2985 14.7985 16.5 14.55 16.5H3.45C3.20147 16.5 3 16.2985 3 16.05Z" stroke="#DAC7B4" stroke-width="1.2" stroke-linecap="round" stroke-linejoin="round"/>
<path d="M12 4.05V1.76516C12 1.61872 12.1187 1.5 12.2652 1.5C12.3355 1.5 12.4029 1.52794 12.4527 1.57766L14.9223 4.04734C14.9721 4.09706 15 4.16451 15 4.23484C15 4.38128 14.8813 4.5 14.7348 4.5H12.45C12.2015 4.5 12 4.29853 12 4.05Z" fill="#DAC7B4" stroke="#DAC7B4" stroke-width="1.2" stroke-linecap="round" stroke-linejoin="round"/>
<path d="M6 7.5H12" stroke="#DAC7B4" stroke-width="1.5" stroke-linecap="round" stroke-linejoin="round"/>
<path d="M6 13.5H12" stroke="#DAC7B4" stroke-width="1.5" stroke-linecap="round" stroke-linejoin="round"/>
<path d="M6 10.5H9" stroke="#DAC7B4" stroke-width="1.5" stroke-linecap="round" stroke-linejoin="round"/>
</svg>
