<svg width="1512" height="799" viewBox="0 0 1512 799" fill="none" xmlns="http://www.w3.org/2000/svg">
<g clip-path="url(#clip0_1_211)">
<path d="M84.0005 67.614C97.042 67.614 107.614 57.0417 107.614 44.0001C107.614 30.9585 97.042 20.3862 84.0005 20.3862C70.9589 20.3862 60.3867 30.9585 60.3867 44.0001C60.3867 57.0417 70.9589 67.614 84.0005 67.614Z" fill="#074F4B"/>
<path d="M82.4479 28.7847C80.0271 28.3168 79.0841 27.1213 78.6979 24.0396C78.6682 23.7797 78.4751 23.6015 78.2301 23.6015C77.9851 23.6015 77.792 23.7797 77.7549 24.0396C77.3761 27.1213 76.4331 28.3168 74.0123 28.7847C73.7895 28.8292 73.6262 29.0297 73.6262 29.2822C73.6262 29.5347 73.7895 29.7277 74.0123 29.7723C76.4702 30.2475 77.4727 31.495 77.844 34.5396C77.8959 34.948 78.193 34.9703 78.2524 34.9703C78.3118 34.9703 78.6088 34.948 78.6608 34.5248C79.0321 31.4802 80.0271 30.2401 82.4479 29.7723C82.6781 29.7277 82.834 29.5198 82.834 29.2748C82.834 29.0297 82.6781 28.8292 82.4479 28.7847ZM78.2524 33.1064C77.74 30.9233 76.6856 29.7946 74.6658 29.2822C76.7301 28.7475 77.7474 27.5743 78.2301 25.1832C78.7128 27.5743 79.7375 28.7475 81.7944 29.2748C79.7969 29.7946 78.7573 30.9158 78.2524 33.1064ZM82.4479 28.7847C80.0271 28.3168 79.0841 27.1213 78.6979 24.0396C78.6682 23.7797 78.4751 23.6015 78.2301 23.6015C77.9851 23.6015 77.792 23.7797 77.7549 24.0396C77.3761 27.1213 76.4331 28.3168 74.0123 28.7847C73.7895 28.8292 73.6262 29.0297 73.6262 29.2822C73.6262 29.5347 73.7895 29.7277 74.0123 29.7723C76.4702 30.2475 77.4727 31.495 77.844 34.5396C77.8959 34.948 78.193 34.9703 78.2524 34.9703C78.3118 34.9703 78.6088 34.948 78.6608 34.5248C79.0321 31.4802 80.0271 30.2401 82.4479 29.7723C82.6781 29.7277 82.834 29.5198 82.834 29.2748C82.834 29.0297 82.6781 28.8292 82.4479 28.7847ZM78.2524 33.1064C77.74 30.9233 76.6856 29.7946 74.6658 29.2822C76.7301 28.7475 77.7474 27.5743 78.2301 25.1832C78.7128 27.5743 79.7375 28.7475 81.7944 29.2748C79.7969 29.7946 78.7573 30.9158 78.2524 33.1064ZM82.4479 28.7847C80.0271 28.3168 79.0841 27.1213 78.6979 24.0396C78.6682 23.7797 78.4751 23.6015 78.2301 23.6015C77.9851 23.6015 77.792 23.7797 77.7549 24.0396C77.3761 27.1213 76.4331 28.3168 74.0123 28.7847C73.7895 28.8292 73.6262 29.0297 73.6262 29.2822C73.6262 29.5347 73.7895 29.7277 74.0123 29.7723C76.4702 30.2475 77.4727 31.495 77.844 34.5396C77.8959 34.948 78.193 34.9703 78.2524 34.9703C78.3118 34.9703 78.6088 34.948 78.6608 34.5248C79.0321 31.4802 80.0271 30.2401 82.4479 29.7723C82.6781 29.7277 82.834 29.5198 82.834 29.2748C82.834 29.0297 82.6781 28.8292 82.4479 28.7847ZM78.2524 33.1064C77.74 30.9233 76.6856 29.7946 74.6658 29.2822C76.7301 28.7475 77.7474 27.5743 78.2301 25.1832C78.7128 27.5743 79.7375 28.7475 81.7944 29.2748C79.7969 29.7946 78.7573 30.9158 78.2524 33.1064ZM82.4479 28.7847C80.0271 28.3168 79.0841 27.1213 78.6979 24.0396C78.6682 23.7797 78.4751 23.6015 78.2301 23.6015C77.9851 23.6015 77.792 23.7797 77.7549 24.0396C77.3761 27.1213 76.4331 28.3168 74.0123 28.7847C73.7895 28.8292 73.6262 29.0297 73.6262 29.2822C73.6262 29.5347 73.7895 29.7277 74.0123 29.7723C76.4702 30.2475 77.4727 31.495 77.844 34.5396C77.8959 34.948 78.193 34.9703 78.2524 34.9703C78.3118 34.9703 78.6088 34.948 78.6608 34.5248C79.0321 31.4802 80.0271 30.2401 82.4479 29.7723C82.6781 29.7277 82.834 29.5198 82.834 29.2748C82.834 29.0297 82.6781 28.8292 82.4479 28.7847ZM78.2524 33.1064C77.74 30.9233 76.6856 29.7946 74.6658 29.2822C76.7301 28.7475 77.7474 27.5743 78.2301 25.1832C78.7128 27.5743 79.7375 28.7475 81.7944 29.2748C79.7969 29.7946 78.7573 30.9158 78.2524 33.1064ZM82.4479 28.7847C80.0271 28.3168 79.0841 27.1213 78.6979 24.0396C78.6682 23.7797 78.4751 23.6015 78.2301 23.6015C77.9851 23.6015 77.792 23.7797 77.7549 24.0396C77.3761 27.1213 76.4331 28.3168 74.0123 28.7847C73.7895 28.8292 73.6262 29.0297 73.6262 29.2822C73.6262 29.5347 73.7895 29.7277 74.0123 29.7723C76.4702 30.2475 77.4727 31.495 77.844 34.5396C77.8959 34.948 78.193 34.9703 78.2524 34.9703C78.3118 34.9703 78.6088 34.948 78.6608 34.5248C79.0321 31.4802 80.0271 30.2401 82.4479 29.7723C82.6781 29.7277 82.834 29.5198 82.834 29.2748C82.834 29.0297 82.6781 28.8292 82.4479 28.7847ZM78.2524 33.1064C77.74 30.9233 76.6856 29.7946 74.6658 29.2822C76.7301 28.7475 77.7474 27.5743 78.2301 25.1832C78.7128 27.5743 79.7375 28.7475 81.7944 29.2748C79.7969 29.7946 78.7573 30.9158 78.2524 33.1064ZM82.4479 28.7847C80.0271 28.3168 79.0841 27.1213 78.6979 24.0396C78.6682 23.7797 78.4751 23.6015 78.2301 23.6015C77.9851 23.6015 77.792 23.7797 77.7549 24.0396C77.3761 27.1213 76.4331 28.3168 74.0123 28.7847C73.7895 28.8292 73.6262 29.0297 73.6262 29.2822C73.6262 29.5347 73.7895 29.7277 74.0123 29.7723C76.4702 30.2475 77.4727 31.495 77.844 34.5396C77.8959 34.948 78.193 34.9703 78.2524 34.9703C78.3118 34.9703 78.6088 34.948 78.6608 34.5248C79.0321 31.4802 80.0271 30.2401 82.4479 29.7723C82.6781 29.7277 82.834 29.5198 82.834 29.2748C82.834 29.0297 82.6781 28.8292 82.4479 28.7847ZM78.2524 33.1064C77.74 30.9233 76.6856 29.7946 74.6658 29.2822C76.7301 28.7475 77.7474 27.5743 78.2301 25.1832C78.7128 27.5743 79.7375 28.7475 81.7944 29.2748C79.7969 29.7946 78.7573 30.9158 78.2524 33.1064ZM82.4479 28.7847C80.0271 28.3168 79.0841 27.1213 78.6979 24.0396C78.6682 23.7797 78.4751 23.6015 78.2301 23.6015C77.9851 23.6015 77.792 23.7797 77.7549 24.0396C77.3761 27.1213 76.4331 28.3168 74.0123 28.7847C73.7895 28.8292 73.6262 29.0297 73.6262 29.2822C73.6262 29.5347 73.7895 29.7277 74.0123 29.7723C76.4702 30.2475 77.4727 31.495 77.844 34.5396C77.8959 34.948 78.193 34.9703 78.2524 34.9703C78.3118 34.9703 78.6088 34.948 78.6608 34.5248C79.0321 31.4802 80.0271 30.2401 82.4479 29.7723C82.6781 29.7277 82.834 29.5198 82.834 29.2748C82.834 29.0297 82.6781 28.8292 82.4479 28.7847ZM78.2524 33.1064C77.74 30.9233 76.6856 29.7946 74.6658 29.2822C76.7301 28.7475 77.7474 27.5743 78.2301 25.1832C78.7128 27.5743 79.7375 28.7475 81.7944 29.2748C79.7969 29.7946 78.7573 30.9158 78.2524 33.1064ZM82.4479 28.7847C80.0271 28.3168 79.0841 27.1213 78.6979 24.0396C78.6682 23.7797 78.4751 23.6015 78.2301 23.6015C77.9851 23.6015 77.792 23.7797 77.7549 24.0396C77.3761 27.1213 76.4331 28.3168 74.0123 28.7847C73.7895 28.8292 73.6262 29.0297 73.6262 29.2822C73.6262 29.5347 73.7895 29.7277 74.0123 29.7723C76.4702 30.2475 77.4727 31.495 77.844 34.5396C77.8959 34.948 78.193 34.9703 78.2524 34.9703C78.3118 34.9703 78.6088 34.948 78.6608 34.5248C79.0321 31.4802 80.0271 30.2401 82.4479 29.7723C82.6781 29.7277 82.834 29.5198 82.834 29.2748C82.834 29.0297 82.6781 28.8292 82.4479 28.7847ZM78.2524 33.1064C77.74 30.9233 76.6856 29.7946 74.6658 29.2822C76.7301 28.7475 77.7474 27.5743 78.2301 25.1832C78.7128 27.5743 79.7375 28.7475 81.7944 29.2748C79.7969 29.7946 78.7573 30.9158 78.2524 33.1064ZM82.4479 28.7847C80.0271 28.3168 79.0841 27.1213 78.6979 24.0396C78.6682 23.7797 78.4751 23.6015 78.2301 23.6015C77.9851 23.6015 77.792 23.7797 77.7549 24.0396C77.3761 27.1213 76.4331 28.3168 74.0123 28.7847C73.7895 28.8292 73.6262 29.0297 73.6262 29.2822C73.6262 29.5347 73.7895 29.7277 74.0123 29.7723C76.4702 30.2475 77.4727 31.495 77.844 34.5396C77.8959 34.948 78.193 34.9703 78.2524 34.9703C78.3118 34.9703 78.6088 34.948 78.6608 34.5248C79.0321 31.4802 80.0271 30.2401 82.4479 29.7723C82.6781 29.7277 82.834 29.5198 82.834 29.2748C82.834 29.0297 82.6781 28.8292 82.4479 28.7847ZM78.2524 33.1064C77.74 30.9233 76.6856 29.7946 74.6658 29.2822C76.7301 28.7475 77.7474 27.5743 78.2301 25.1832C78.7128 27.5743 79.7375 28.7475 81.7944 29.2748C79.7969 29.7946 78.7573 30.9158 78.2524 33.1064ZM82.4479 28.7847C80.0271 28.3168 79.0841 27.1213 78.6979 24.0396C78.6682 23.7797 78.4751 23.6015 78.2301 23.6015C77.9851 23.6015 77.792 23.7797 77.7549 24.0396C77.3761 27.1213 76.4331 28.3168 74.0123 28.7847C73.7895 28.8292 73.6262 29.0297 73.6262 29.2822C73.6262 29.5347 73.7895 29.7277 74.0123 29.7723C76.4702 30.2475 77.4727 31.495 77.844 34.5396C77.8959 34.948 78.193 34.9703 78.2524 34.9703C78.3118 34.9703 78.6088 34.948 78.6608 34.5248C79.0321 31.4802 80.0271 30.2401 82.4479 29.7723C82.6781 29.7277 82.834 29.5198 82.834 29.2748C82.834 29.0297 82.6781 28.8292 82.4479 28.7847ZM78.2524 33.1064C77.74 30.9233 76.6856 29.7946 74.6658 29.2822C76.7301 28.7475 77.7474 27.5743 78.2301 25.1832C78.7128 27.5743 79.7375 28.7475 81.7944 29.2748C79.7969 29.7946 78.7573 30.9158 78.2524 33.1064ZM83.9999 20C70.7673 20 60 30.7673 60 44C60 57.2327 70.7673 68 83.9999 68C97.2325 68 108 57.2327 108 44C108 30.7673 97.2325 20 83.9999 20ZM60.7426 44C60.7426 42.0396 60.9876 40.1386 61.4406 38.3267C64.0099 39.7302 65.8737 42.1213 66.5272 44.9431C66.6906 45.6559 66.7797 46.4059 66.7797 47.1708C66.7797 47.3119 66.7722 47.453 66.7648 47.5941C66.7277 48.5817 66.5346 49.547 66.2079 50.4752C64.2327 50.0965 62.4802 49.2054 61.0842 47.9653C60.8614 46.6733 60.7426 45.3515 60.7426 44ZM62.0421 51.6708C61.7599 50.854 61.5148 50.0074 61.3218 49.1535C61.3441 49.1683 61.3663 49.1832 61.3886 49.198C61.4406 49.2426 61.5 49.2797 61.5594 49.3243C61.6337 49.3762 61.7005 49.4282 61.7747 49.4728C61.8341 49.5099 61.8936 49.5545 61.953 49.5916C62.0272 49.6361 62.1015 49.6881 62.1757 49.7327C62.2351 49.7698 62.2945 49.8069 62.3614 49.8366C62.4356 49.8812 62.5099 49.9257 62.5841 49.9703C62.651 50.0074 62.7104 50.0371 62.7772 50.0743C62.8515 50.1114 62.9332 50.1559 63.0074 50.1931C63.0742 50.2228 63.1336 50.2599 63.2005 50.2896C63.2822 50.3267 63.3564 50.3639 63.4381 50.401C63.5049 50.4307 63.5643 50.4604 63.6312 50.4901C63.7129 50.5198 63.802 50.5569 63.8836 50.5941C63.943 50.6163 64.0099 50.646 64.0767 50.6683C64.1584 50.698 64.2475 50.7351 64.3366 50.7649C64.396 50.7871 64.4628 50.8094 64.5223 50.8317C64.6188 50.8614 64.7079 50.8911 64.8044 50.9208C64.8638 50.9356 64.9232 50.9579 64.9826 50.9728C65.0866 51.0025 65.1906 51.0322 65.2945 51.0619C65.3465 51.0693 65.3911 51.0842 65.443 51.099C65.599 51.1361 65.7549 51.1733 65.9109 51.203H65.9183C65.5841 51.9381 65.1683 52.6361 64.6708 53.2748C64.6559 53.2673 64.6411 53.2599 64.6262 53.2451C64.5668 53.2005 64.5074 53.1559 64.448 53.104C64.3737 53.052 64.2995 52.9926 64.2252 52.9332C64.1584 52.8886 64.099 52.8441 64.0396 52.7995C63.9579 52.7475 63.8836 52.6881 63.802 52.6361C63.7426 52.599 63.6757 52.5545 63.6089 52.5099C63.5346 52.4653 63.453 52.4134 63.3787 52.3614C63.3119 52.3243 63.245 52.2871 63.1782 52.2426C63.0965 52.198 63.0148 52.1535 62.9332 52.1089C62.8663 52.0718 62.7995 52.0347 62.7327 51.9975C62.651 51.9604 62.5693 51.9158 62.4876 51.8713C62.4134 51.8416 62.3465 51.8045 62.2723 51.7748C62.198 51.7376 62.1238 51.7005 62.0421 51.6708ZM62.4505 52.7327C63.052 53.0594 63.6312 53.4381 64.1658 53.8762C63.9059 54.1584 63.6312 54.4183 63.3416 54.6708C63.0148 54.0396 62.7178 53.3936 62.4505 52.7327ZM63.7277 55.3837C63.7277 55.3837 63.7648 55.354 63.7797 55.3391L63.9133 55.2277C63.9133 55.2277 63.9802 55.1683 64.0173 55.1386C64.0544 55.1015 64.099 55.0569 64.1361 55.0198C64.1732 54.9901 64.2029 54.9604 64.2401 54.9233C64.2772 54.8861 64.3218 54.849 64.3589 54.8119C64.396 54.7748 64.4257 54.7451 64.4554 54.7079C64.5 54.6708 64.5371 54.6262 64.5742 54.5891C64.6039 54.552 64.6411 54.5223 64.6708 54.4851C64.693 54.4629 64.7153 54.4406 64.7376 54.4109C65.7104 55.5173 66.4975 57.6708 67.0396 59.8985C65.7623 58.5322 64.6485 57.0248 63.7277 55.3837ZM68.094 60.953C67.5222 58.1535 66.542 55.198 65.25 53.8094C65.8515 53.052 66.349 52.2203 66.7277 51.3441C67.745 51.4777 68.8143 51.4777 69.8391 51.3441C70.2103 52.2203 70.7079 53.052 71.3093 53.8094C69.9801 55.25 68.9777 58.3614 68.4059 61.2426C68.3019 61.146 68.198 61.0495 68.094 60.953ZM69.7871 47.1708C69.7871 42.2772 73.344 38.1188 78.2895 37.1832C78.6682 38.2376 78.8613 39.3515 78.8613 40.4876C78.8613 45.3812 75.3044 49.5322 70.3514 50.4752C69.9727 49.4134 69.7871 48.3069 69.7871 47.1708ZM83.9999 67.2574C78.3415 67.2574 73.1435 65.2228 69.1039 61.8515C69.6163 59.0223 70.5668 55.8366 71.8217 54.4109C71.844 54.4406 71.8663 54.4629 71.8886 54.4851C71.9257 54.5223 71.9554 54.552 71.9851 54.5891C72.0296 54.6262 72.0668 54.6708 72.1039 54.7079C72.1336 54.7451 72.1707 54.7748 72.2004 54.8119C72.245 54.849 72.2821 54.8861 72.3192 54.9233C72.3564 54.9604 72.3861 54.9901 72.4232 55.0198C72.4678 55.0569 72.5049 55.0941 72.5494 55.1386C72.5791 55.1683 72.6163 55.198 72.646 55.2277L72.7796 55.3391C72.7796 55.3391 72.8465 55.3985 72.8762 55.4282C72.9207 55.4653 72.9727 55.5025 73.0173 55.5396C73.047 55.5693 73.0841 55.5916 73.1138 55.6213C73.1658 55.6584 73.2103 55.6955 73.2623 55.7327C73.292 55.755 73.3217 55.7847 73.3588 55.8069C73.4108 55.8515 73.4628 55.8886 73.5222 55.9257C73.5445 55.948 73.5742 55.9703 73.6039 55.9851C73.6781 56.0446 73.7524 56.0965 73.8267 56.1411L73.8489 56.1634C73.938 56.2153 74.0197 56.2748 74.1088 56.3267C74.1311 56.3416 74.1534 56.3564 74.1757 56.3713C74.2425 56.4084 74.3019 56.453 74.3613 56.4901C74.3984 56.505 74.4281 56.5272 74.4578 56.5421C74.5172 56.5792 74.5692 56.6089 74.6286 56.6386C74.6658 56.6609 74.7029 56.6757 74.7326 56.698C74.7846 56.7277 74.844 56.7574 74.896 56.7871C74.9331 56.802 74.9702 56.8243 75.0073 56.8465C75.0593 56.8688 75.1113 56.8985 75.1633 56.9208C75.2004 56.9431 75.245 56.9653 75.2821 56.9802C75.3341 57.0025 75.3861 57.0322 75.438 57.0545C75.4826 57.0767 75.5197 57.0916 75.5643 57.1139C75.6163 57.1361 75.6682 57.1584 75.7128 57.1807C75.7573 57.1955 75.8019 57.2104 75.8464 57.2327C75.891 57.255 75.943 57.2772 75.995 57.2921C76.0395 57.3144 76.0841 57.3292 76.1286 57.3441C76.1806 57.3663 76.2326 57.3886 76.2846 57.4035C76.3291 57.4183 76.3737 57.4332 76.4108 57.4554C76.4628 57.4703 76.5148 57.4851 76.5667 57.5074C76.6113 57.5223 76.6559 57.5371 76.7004 57.552C76.7598 57.5668 76.8118 57.5817 76.8638 57.604C76.9083 57.6114 76.9529 57.6262 76.9974 57.6411C77.0494 57.6559 77.1014 57.6708 77.1534 57.6856C77.1979 57.7005 77.2425 57.7153 77.2945 57.7228C77.3464 57.7376 77.3984 57.7525 77.4504 57.7673C77.495 57.7822 77.5469 57.7896 77.5915 57.8045C77.6435 57.8119 77.6954 57.8267 77.7549 57.8416C77.7994 57.8416 77.844 57.8564 77.8885 57.8713C77.9479 57.8787 77.9999 57.8936 78.0519 57.901C78.0964 57.9158 78.1484 57.9233 78.193 57.9307C78.245 57.9381 78.3044 57.953 78.3563 57.9604C78.4083 57.9678 78.4529 57.9753 78.4974 57.9827C78.5568 57.9827 78.6088 57.9975 78.6682 58.005L78.8019 58.0272C78.8613 58.0272 78.9207 58.0421 78.9727 58.0495C79.0247 58.0569 79.0692 58.0569 79.1138 58.0644C79.1732 58.0718 79.2326 58.0792 79.292 58.0792C79.3365 58.0866 79.3811 58.0866 79.4256 58.0941C79.485 58.0941 79.5444 58.1015 79.6113 58.1089C79.6484 58.1089 79.693 58.1089 79.7375 58.1163C79.8043 58.1163 79.8786 58.1163 79.9454 58.1238H80.0494C80.1534 58.1312 80.2573 58.1312 80.3613 58.1312C80.8959 58.1312 81.4306 58.0941 81.9578 58.0198C84.2226 57.7153 86.3464 56.7574 88.0543 55.25C88.2102 55.1089 88.2251 54.8787 88.0914 54.7228C85.9231 52.146 82.7004 50.6683 79.2623 50.6683C79.0841 50.6683 78.9133 50.6757 78.7425 50.6832C78.6831 50.6832 78.6237 50.6906 78.5643 50.6906C78.4529 50.698 78.3341 50.7054 78.2227 50.7203C78.1558 50.7203 78.089 50.7352 78.0148 50.7426C77.9182 50.7426 77.8143 50.7574 77.7103 50.7723C77.636 50.7871 77.5618 50.7946 77.495 50.8094C77.3984 50.8243 77.2945 50.8391 77.1979 50.854C77.1237 50.8688 77.0494 50.8837 76.9752 50.8985C76.886 50.9134 76.7895 50.9356 76.7004 50.9505C76.6261 50.9728 76.5519 50.9876 76.4776 51.0025C76.3811 51.0248 76.292 51.047 76.2029 51.0767C76.1286 51.0916 76.0544 51.1139 75.9801 51.1361C75.891 51.1658 75.8019 51.1881 75.7128 51.2178C75.6385 51.2401 75.5643 51.2698 75.49 51.2921C75.4009 51.3218 75.3118 51.3515 75.2301 51.3812C75.1559 51.4109 75.0816 51.4332 75.0073 51.4629C74.9257 51.5 74.8366 51.5297 74.7549 51.5668C74.6806 51.5965 74.6138 51.6262 74.5395 51.6559C74.4578 51.6931 74.3687 51.7376 74.2871 51.7748C74.2202 51.8045 74.146 51.8416 74.0791 51.8713C73.9974 51.9158 73.9158 51.9604 73.8341 51.9975C73.7598 52.0347 73.693 52.0718 73.6262 52.1089C73.5445 52.1535 73.4628 52.198 73.3885 52.25C73.3217 52.2871 73.2549 52.3243 73.188 52.3614C73.1064 52.4134 73.0247 52.4653 72.9504 52.5173C72.8836 52.5545 72.8168 52.599 72.7574 52.6361C72.6757 52.6881 72.6014 52.7475 72.5197 52.7995C72.4603 52.8441 72.4009 52.8886 72.3415 52.9332C72.2598 52.9926 72.1856 53.052 72.1113 53.1114C72.0519 53.1559 71.9925 53.2005 71.9331 53.2451C71.9331 53.2525 71.9108 53.2673 71.896 53.2748C71.391 52.6361 70.9752 51.9381 70.6485 51.203C70.8044 51.1733 70.9603 51.1361 71.1163 51.099C71.1683 51.0842 71.2128 51.0693 71.2648 51.0619C71.3688 51.0322 71.4727 51.0025 71.5841 50.9728C71.6435 50.9579 71.6955 50.9356 71.7549 50.9208C71.8514 50.8911 71.948 50.8614 72.0371 50.8317C72.1039 50.8094 72.1633 50.7871 72.2227 50.7649C72.3118 50.7351 72.4009 50.698 72.49 50.6683C72.5494 50.646 72.6163 50.6163 72.6757 50.5941C72.7648 50.5569 72.8465 50.5198 72.9281 50.4901C72.995 50.4604 73.0544 50.4307 73.1212 50.401C73.2029 50.3639 73.2846 50.3267 73.3663 50.2896C73.4257 50.2599 73.4925 50.2228 73.5519 50.1931C73.6336 50.1559 73.7078 50.1114 73.7895 50.0743C73.8489 50.0371 73.9158 50.0074 73.9752 49.9703C74.0494 49.9257 74.1311 49.8812 74.2054 49.8366C74.2648 49.8069 74.3242 49.7698 74.3836 49.7327C74.4578 49.6881 74.5321 49.6361 74.6064 49.5916C74.6658 49.5545 74.7252 49.5099 74.7846 49.4728C74.8588 49.4282 74.9331 49.3762 75.0073 49.3243C75.0593 49.2797 75.1187 49.2426 75.1781 49.198C75.245 49.146 75.3192 49.0941 75.3935 49.0421C75.4455 48.9975 75.4974 48.953 75.5494 48.9158C75.6237 48.8564 75.6979 48.797 75.7648 48.7376C75.8167 48.6931 75.8687 48.6485 75.9207 48.6114C75.9875 48.5446 76.0618 48.4777 76.1286 48.4109C76.1806 48.3738 76.2252 48.3292 76.2697 48.2921C76.344 48.2178 76.4182 48.1436 76.4925 48.0619C76.5296 48.0248 76.5742 47.9951 76.6039 47.9505C76.7153 47.8391 76.8266 47.7203 76.9306 47.6089C78.6905 45.6262 79.6633 43.0941 79.6633 40.4876C79.6633 39.151 79.4108 37.8441 78.9281 36.604C78.8613 36.4332 78.6756 36.3292 78.49 36.3589C75.8613 36.7822 73.4554 38.0891 71.7103 40.0495C69.9504 42.0322 68.9851 44.5644 68.9851 47.1708C68.9851 47.3267 68.9851 47.4901 68.9925 47.646C69 47.6906 69 47.7426 69.0074 47.7946C69.0074 47.8985 69.0148 48.0099 69.0297 48.1139C69.0297 48.1733 69.0371 48.2327 69.0445 48.2921C69.0519 48.3886 69.0668 48.4852 69.0816 48.5817C69.0891 48.6411 69.0965 48.7079 69.1039 48.7673C69.1188 48.8639 69.1336 48.953 69.1485 49.0495C69.1633 49.1089 69.1707 49.1683 69.1856 49.2277C69.2079 49.3243 69.2227 49.4208 69.245 49.5173C69.2599 49.5767 69.2747 49.6287 69.2896 49.6881C69.3118 49.7921 69.3415 49.8886 69.3638 49.9926C69.3787 50.0371 69.3935 50.0891 69.4084 50.1411C69.4455 50.2673 69.4826 50.3936 69.5272 50.5124C69.5272 50.5421 69.542 50.5644 69.5495 50.5866V50.6015C68.7178 50.698 67.8415 50.698 67.0099 50.6015V50.5866C67.0099 50.5866 67.0321 50.5421 67.0396 50.5124C67.0767 50.3936 67.1138 50.2673 67.151 50.1411C67.1658 50.0891 67.1807 50.0371 67.1955 49.9851C67.2252 49.8886 67.2475 49.7921 67.2772 49.6881C67.292 49.6287 67.2995 49.5693 67.3143 49.5099C67.3366 49.4208 67.3589 49.3243 67.3737 49.2351C67.3886 49.1683 67.396 49.1089 67.4109 49.0495C67.4257 48.953 67.4406 48.8639 67.4554 48.7673C67.4554 48.7079 67.4777 48.6411 67.4851 48.5817C67.4851 48.4852 67.5074 48.3886 67.5148 48.2921C67.5222 48.2327 67.5297 48.1733 67.5371 48.1139C67.5445 48.0099 67.5519 47.8985 67.5594 47.7946C67.5594 47.7426 67.5668 47.698 67.5668 47.646C67.5742 47.4901 67.5742 47.3267 67.5742 47.1708C67.5742 44.5644 66.6089 42.0322 64.849 40.0495C63.943 39.0322 62.8589 38.1931 61.6559 37.5619C64.4554 27.8564 73.4108 20.7426 83.9999 20.7426C90.8983 20.7426 97.1062 23.7649 101.369 28.547C100.314 27.9827 99.1112 27.8119 98.2795 27.7599C97.6186 27.7228 96.9651 27.7599 96.3859 27.8416C95.7622 27.5074 95.0345 27.2475 94.5295 27.0916C93.1409 26.6683 91.6632 26.4604 90.1632 26.4901C89.0642 26.505 88.136 26.6832 87.4008 27.0248C86.7548 27.3292 86.2944 27.7376 86.0197 28.25C85.7449 28.7698 85.6855 29.3787 85.8563 30.0173C86.0048 30.5817 86.3315 31.1757 86.8216 31.7772C87.6236 32.75 88.4627 33.5223 89.3167 34.0792C89.6286 34.2797 90.0815 34.547 90.5493 34.7104C90.6682 35.4604 90.9355 36.2995 91.3142 37.0941C92.0642 38.6609 93.178 39.9381 94.6261 40.8812C94.7152 40.9332 94.8191 40.9554 94.9231 40.9332C95.027 40.9109 95.1161 40.8515 95.1756 40.7624C95.2275 40.6733 95.2498 40.5619 95.2275 40.4653C95.0048 39.3812 94.8934 37.9851 95.2053 37.1386C96.178 38.052 97.0097 39.3218 97.4552 40.5842C98.4057 43.2277 97.8934 46.0272 95.9478 48.8936C95.829 49.0792 95.8736 49.3243 96.0592 49.4505C96.1483 49.5099 96.2523 49.5322 96.3562 49.5099C96.4602 49.4876 96.5493 49.4282 96.6087 49.3391C98.7622 46.1683 99.2671 42.9381 98.0864 39.9975C97.7003 39.0396 97.1508 38.1411 96.4528 37.3094C96.0741 36.8639 95.7102 36.5 95.3612 36.2178L95.3166 36.1807C94.9379 35.9059 94.5072 35.6535 94.136 35.4455C93.5271 35.104 92.8959 34.7772 92.2498 34.4728C92.1533 34.4282 92.0493 34.4282 91.9454 34.4579C91.8488 34.495 91.7672 34.5693 91.7226 34.6658C91.678 34.7624 91.6706 34.8738 91.7078 34.9703C91.7449 35.0668 91.8191 35.1485 91.9157 35.1931C92.5246 35.4752 93.1335 35.7946 93.735 36.1287C93.9874 36.2698 94.2845 36.4406 94.5666 36.6262C94.1508 37.495 94.1879 38.7574 94.2919 39.6485C93.2523 38.7946 92.4503 37.7252 91.9008 36.4629C91.5889 35.7351 91.3662 34.9554 91.2993 34.3837C91.2919 34.2054 91.1657 34.0495 90.9875 34.0124C90.6384 33.9381 90.1632 33.6708 89.9776 33.5594C89.1236 33.0545 88.2697 32.2822 87.438 31.2723C87.0147 30.7599 86.7474 30.2698 86.6211 29.8168C86.5098 29.3713 86.5395 28.9629 86.7251 28.6213C86.9107 28.2649 87.2523 27.9752 87.735 27.745C88.3662 27.4554 89.1904 27.2995 90.1781 27.2772C92.3464 27.2401 94.5147 27.7302 96.1112 28.599C96.1929 28.651 96.2894 28.6658 96.3859 28.651C96.9354 28.547 97.5741 28.5173 98.2349 28.5545C98.9924 28.599 100.084 28.755 101.005 29.2525C101.822 29.698 102.319 30.3069 102.497 31.0792C102.029 30.7896 101.45 30.604 100.782 30.5297C100.322 30.4703 99.8389 30.4703 99.4676 30.5297C99.3859 30.5297 99.3117 30.5668 99.2523 30.6188C99.0889 30.7673 99.0666 31.0198 99.2077 31.1832C101.131 33.4035 102.23 36.1584 102.393 39.151C102.497 41.104 102.2 43.0866 101.525 44.8688C101.064 46.0866 100.203 47.802 98.7102 49.0941C97.7077 49.9554 96.579 50.4752 95.428 50.5941C94.4627 48.7822 92.1978 47.4604 90.4454 46.6584C90.0444 46.4802 89.6211 46.302 89.1904 46.1386C88.2548 45.7822 85.0098 44.6238 82.3365 44.7649C82.136 44.7649 81.9875 44.8911 81.943 45.0693C81.9207 45.1733 81.943 45.2772 81.9949 45.3663C82.0469 45.4554 82.136 45.5223 82.24 45.5446C83.9479 45.953 84.839 47.5792 85.6261 49.0124L85.7226 49.1906C86.3167 50.2673 86.985 51.4851 87.9949 52.2723C88.7672 52.8812 89.6657 53.1634 90.7276 53.1559C89.5172 54.2327 89.0716 55.6287 88.6261 57.2995C88.1657 59.052 87.7721 60.5594 85.7226 61.0569C85.6335 61.0792 85.5518 61.1386 85.4924 61.2129C85.433 61.302 85.4108 61.4059 85.4256 61.5099C85.4479 61.6139 85.4999 61.7104 85.589 61.7698C86.4132 62.3564 87.3117 62.646 88.2548 62.646C88.5073 62.646 88.7597 62.6312 89.0122 62.5866C90.0073 62.4307 91.0172 61.9629 92.0122 61.2129C92.9107 60.5297 93.735 59.6609 94.4627 58.6287C95.6285 56.9802 96.7647 54.5149 96.4528 52.5396C96.4156 52.3243 96.2152 52.1757 95.9998 52.2129C95.8884 52.2277 95.7993 52.2871 95.7399 52.3688C95.6731 52.4579 95.6508 52.5619 95.6656 52.6658C95.9404 54.4109 94.8414 56.7203 93.8167 58.1683C93.1335 59.1337 92.3612 59.9431 91.5295 60.5743C90.6459 61.25 89.7548 61.6658 88.886 61.7995C88.1508 61.9183 87.4454 61.8292 86.7771 61.5396C88.5444 60.745 88.9751 59.0965 89.3984 57.5C89.6286 56.6312 89.8662 55.7252 90.3266 54.9233C90.8389 54.0248 91.5741 53.3713 92.5766 52.9109C92.7993 52.8069 93.0295 52.7327 93.2746 52.651C93.4454 52.599 93.6236 52.5396 93.7795 52.4802C93.98 52.4134 94.0988 52.2054 94.0394 51.9975C93.98 51.7896 93.7647 51.6559 93.5493 51.7153C93.334 51.7748 93.1186 51.8564 92.9107 51.9307C92.6805 52.0124 92.4577 52.0941 92.2276 52.146C90.6385 52.547 89.4503 52.3762 88.4701 51.6188C87.5865 50.9282 86.9702 49.8144 86.4281 48.8267L86.339 48.6634C85.7598 47.6089 85.1212 46.4431 84.1558 45.6411C86.1013 45.8861 87.9503 46.5099 88.938 46.8886C89.339 47.0446 89.7399 47.2079 90.1187 47.3861C91.5295 48.0248 94.0097 49.3688 94.834 51.1807C94.9008 51.3366 95.0642 51.4257 95.2275 51.4109C96.6384 51.3292 98.0196 50.7352 99.23 49.6955C100.507 48.5817 101.562 47.0149 102.267 45.151C102.98 43.2649 103.299 41.1708 103.188 39.1064C103.032 36.2178 102.044 33.5297 100.322 31.2946C100.997 31.3243 102.052 31.4951 102.653 32.2599C102.794 32.4307 103.039 32.4604 103.21 32.3193C103.307 32.245 103.359 32.1337 103.366 32.0223C103.381 31.6955 103.366 31.3762 103.307 31.0718C103.307 31.0644 103.307 31.0495 103.307 31.0421C105.809 34.7475 107.272 39.2104 107.272 44.0074C107.272 56.8317 96.8315 67.2649 84.0073 67.2649L83.9999 67.2574ZM72.4009 53.8762C74.3093 52.302 76.7301 51.4406 79.2623 51.4406C82.3291 51.4406 85.2103 52.7104 87.2226 54.9233C85.3142 56.4975 82.8934 57.3589 80.3613 57.3589C77.2945 57.3589 74.4133 56.0965 72.4009 53.8762ZM82.834 29.2748C82.834 29.0297 82.6781 28.8292 82.4479 28.7847C80.0271 28.3168 79.0841 27.1213 78.6979 24.0396C78.6682 23.7797 78.4751 23.6015 78.2301 23.6015C77.9851 23.6015 77.792 23.7797 77.7549 24.0396C77.3761 27.1213 76.4331 28.3168 74.0123 28.7847C73.7895 28.8292 73.6262 29.0297 73.6262 29.2822C73.6262 29.5347 73.7895 29.7277 74.0123 29.7723C76.4702 30.2475 77.4727 31.495 77.844 34.5396C77.8959 34.948 78.193 34.9703 78.2524 34.9703C78.3118 34.9703 78.6088 34.948 78.6608 34.5248C79.0321 31.4802 80.0271 30.2401 82.4479 29.7723C82.6781 29.7277 82.834 29.5198 82.834 29.2748ZM78.2524 33.1064C77.74 30.9233 76.6856 29.7946 74.6658 29.2822C76.7301 28.7475 77.7474 27.5743 78.2301 25.1832C78.7128 27.5743 79.7375 28.7475 81.7944 29.2748C79.7969 29.7946 78.7573 30.9158 78.2524 33.1064ZM82.4479 28.7847C80.0271 28.3168 79.0841 27.1213 78.6979 24.0396C78.6682 23.7797 78.4751 23.6015 78.2301 23.6015C77.9851 23.6015 77.792 23.7797 77.7549 24.0396C77.3761 27.1213 76.4331 28.3168 74.0123 28.7847C73.7895 28.8292 73.6262 29.0297 73.6262 29.2822C73.6262 29.5347 73.7895 29.7277 74.0123 29.7723C76.4702 30.2475 77.4727 31.495 77.844 34.5396C77.8959 34.948 78.193 34.9703 78.2524 34.9703C78.3118 34.9703 78.6088 34.948 78.6608 34.5248C79.0321 31.4802 80.0271 30.2401 82.4479 29.7723C82.6781 29.7277 82.834 29.5198 82.834 29.2748C82.834 29.0297 82.6781 28.8292 82.4479 28.7847ZM78.2524 33.1064C77.74 30.9233 76.6856 29.7946 74.6658 29.2822C76.7301 28.7475 77.7474 27.5743 78.2301 25.1832C78.7128 27.5743 79.7375 28.7475 81.7944 29.2748C79.7969 29.7946 78.7573 30.9158 78.2524 33.1064ZM82.4479 28.7847C80.0271 28.3168 79.0841 27.1213 78.6979 24.0396C78.6682 23.7797 78.4751 23.6015 78.2301 23.6015C77.9851 23.6015 77.792 23.7797 77.7549 24.0396C77.3761 27.1213 76.4331 28.3168 74.0123 28.7847C73.7895 28.8292 73.6262 29.0297 73.6262 29.2822C73.6262 29.5347 73.7895 29.7277 74.0123 29.7723C76.4702 30.2475 77.4727 31.495 77.844 34.5396C77.8959 34.948 78.193 34.9703 78.2524 34.9703C78.3118 34.9703 78.6088 34.948 78.6608 34.5248C79.0321 31.4802 80.0271 30.2401 82.4479 29.7723C82.6781 29.7277 82.834 29.5198 82.834 29.2748C82.834 29.0297 82.6781 28.8292 82.4479 28.7847ZM78.2524 33.1064C77.74 30.9233 76.6856 29.7946 74.6658 29.2822C76.7301 28.7475 77.7474 27.5743 78.2301 25.1832C78.7128 27.5743 79.7375 28.7475 81.7944 29.2748C79.7969 29.7946 78.7573 30.9158 78.2524 33.1064ZM82.4479 28.7847C80.0271 28.3168 79.0841 27.1213 78.6979 24.0396C78.6682 23.7797 78.4751 23.6015 78.2301 23.6015C77.9851 23.6015 77.792 23.7797 77.7549 24.0396C77.3761 27.1213 76.4331 28.3168 74.0123 28.7847C73.7895 28.8292 73.6262 29.0297 73.6262 29.2822C73.6262 29.5347 73.7895 29.7277 74.0123 29.7723C76.4702 30.2475 77.4727 31.495 77.844 34.5396C77.8959 34.948 78.193 34.9703 78.2524 34.9703C78.3118 34.9703 78.6088 34.948 78.6608 34.5248C79.0321 31.4802 80.0271 30.2401 82.4479 29.7723C82.6781 29.7277 82.834 29.5198 82.834 29.2748C82.834 29.0297 82.6781 28.8292 82.4479 28.7847ZM78.2524 33.1064C77.74 30.9233 76.6856 29.7946 74.6658 29.2822C76.7301 28.7475 77.7474 27.5743 78.2301 25.1832C78.7128 27.5743 79.7375 28.7475 81.7944 29.2748C79.7969 29.7946 78.7573 30.9158 78.2524 33.1064ZM82.4479 28.7847C80.0271 28.3168 79.0841 27.1213 78.6979 24.0396C78.6682 23.7797 78.4751 23.6015 78.2301 23.6015C77.9851 23.6015 77.792 23.7797 77.7549 24.0396C77.3761 27.1213 76.4331 28.3168 74.0123 28.7847C73.7895 28.8292 73.6262 29.0297 73.6262 29.2822C73.6262 29.5347 73.7895 29.7277 74.0123 29.7723C76.4702 30.2475 77.4727 31.495 77.844 34.5396C77.8959 34.948 78.193 34.9703 78.2524 34.9703C78.3118 34.9703 78.6088 34.948 78.6608 34.5248C79.0321 31.4802 80.0271 30.2401 82.4479 29.7723C82.6781 29.7277 82.834 29.5198 82.834 29.2748C82.834 29.0297 82.6781 28.8292 82.4479 28.7847ZM78.2524 33.1064C77.74 30.9233 76.6856 29.7946 74.6658 29.2822C76.7301 28.7475 77.7474 27.5743 78.2301 25.1832C78.7128 27.5743 79.7375 28.7475 81.7944 29.2748C79.7969 29.7946 78.7573 30.9158 78.2524 33.1064ZM82.4479 28.7847C80.0271 28.3168 79.0841 27.1213 78.6979 24.0396C78.6682 23.7797 78.4751 23.6015 78.2301 23.6015C77.9851 23.6015 77.792 23.7797 77.7549 24.0396C77.3761 27.1213 76.4331 28.3168 74.0123 28.7847C73.7895 28.8292 73.6262 29.0297 73.6262 29.2822C73.6262 29.5347 73.7895 29.7277 74.0123 29.7723C76.4702 30.2475 77.4727 31.495 77.844 34.5396C77.8959 34.948 78.193 34.9703 78.2524 34.9703C78.3118 34.9703 78.6088 34.948 78.6608 34.5248C79.0321 31.4802 80.0271 30.2401 82.4479 29.7723C82.6781 29.7277 82.834 29.5198 82.834 29.2748C82.834 29.0297 82.6781 28.8292 82.4479 28.7847ZM78.2524 33.1064C77.74 30.9233 76.6856 29.7946 74.6658 29.2822C76.7301 28.7475 77.7474 27.5743 78.2301 25.1832C78.7128 27.5743 79.7375 28.7475 81.7944 29.2748C79.7969 29.7946 78.7573 30.9158 78.2524 33.1064ZM82.4479 28.7847C80.0271 28.3168 79.0841 27.1213 78.6979 24.0396C78.6682 23.7797 78.4751 23.6015 78.2301 23.6015C77.9851 23.6015 77.792 23.7797 77.7549 24.0396C77.3761 27.1213 76.4331 28.3168 74.0123 28.7847C73.7895 28.8292 73.6262 29.0297 73.6262 29.2822C73.6262 29.5347 73.7895 29.7277 74.0123 29.7723C76.4702 30.2475 77.4727 31.495 77.844 34.5396C77.8959 34.948 78.193 34.9703 78.2524 34.9703C78.3118 34.9703 78.6088 34.948 78.6608 34.5248C79.0321 31.4802 80.0271 30.2401 82.4479 29.7723C82.6781 29.7277 82.834 29.5198 82.834 29.2748C82.834 29.0297 82.6781 28.8292 82.4479 28.7847ZM78.2524 33.1064C77.74 30.9233 76.6856 29.7946 74.6658 29.2822C76.7301 28.7475 77.7474 27.5743 78.2301 25.1832C78.7128 27.5743 79.7375 28.7475 81.7944 29.2748C79.7969 29.7946 78.7573 30.9158 78.2524 33.1064ZM82.4479 28.7847C80.0271 28.3168 79.0841 27.1213 78.6979 24.0396C78.6682 23.7797 78.4751 23.6015 78.2301 23.6015C77.9851 23.6015 77.792 23.7797 77.7549 24.0396C77.3761 27.1213 76.4331 28.3168 74.0123 28.7847C73.7895 28.8292 73.6262 29.0297 73.6262 29.2822C73.6262 29.5347 73.7895 29.7277 74.0123 29.7723C76.4702 30.2475 77.4727 31.495 77.844 34.5396C77.8959 34.948 78.193 34.9703 78.2524 34.9703C78.3118 34.9703 78.6088 34.948 78.6608 34.5248C79.0321 31.4802 80.0271 30.2401 82.4479 29.7723C82.6781 29.7277 82.834 29.5198 82.834 29.2748C82.834 29.0297 82.6781 28.8292 82.4479 28.7847ZM78.2524 33.1064C77.74 30.9233 76.6856 29.7946 74.6658 29.2822C76.7301 28.7475 77.7474 27.5743 78.2301 25.1832C78.7128 27.5743 79.7375 28.7475 81.7944 29.2748C79.7969 29.7946 78.7573 30.9158 78.2524 33.1064ZM82.4479 28.7847C80.0271 28.3168 79.0841 27.1213 78.6979 24.0396C78.6682 23.7797 78.4751 23.6015 78.2301 23.6015C77.9851 23.6015 77.792 23.7797 77.7549 24.0396C77.3761 27.1213 76.4331 28.3168 74.0123 28.7847C73.7895 28.8292 73.6262 29.0297 73.6262 29.2822C73.6262 29.5347 73.7895 29.7277 74.0123 29.7723C76.4702 30.2475 77.4727 31.495 77.844 34.5396C77.8959 34.948 78.193 34.9703 78.2524 34.9703C78.3118 34.9703 78.6088 34.948 78.6608 34.5248C79.0321 31.4802 80.0271 30.2401 82.4479 29.7723C82.6781 29.7277 82.834 29.5198 82.834 29.2748C82.834 29.0297 82.6781 28.8292 82.4479 28.7847ZM78.2524 33.1064C77.74 30.9233 76.6856 29.7946 74.6658 29.2822C76.7301 28.7475 77.7474 27.5743 78.2301 25.1832C78.7128 27.5743 79.7375 28.7475 81.7944 29.2748C79.7969 29.7946 78.7573 30.9158 78.2524 33.1064Z" fill="#DAC7B4"/>
</g>
<defs>
<clipPath id="clip0_1_211">
<rect width="1512" height="799" fill="white"/>
</clipPath>
</defs>
</svg>
