<svg width="872" height="872" viewBox="0 0 872 872" fill="none" xmlns="http://www.w3.org/2000/svg">
<path fill-rule="evenodd" clip-rule="evenodd" d="M0 436C0 195.611 195.61 0 436 0C676.39 0 872 195.611 872 436C872 676.39 676.39 872 436 872C195.61 872 0 676.39 0 436ZM370.375 674.144C414.101 674.144 456.424 659.475 489.974 632.804C454.319 594.833 403.644 573.145 350.442 573.145C306.716 573.145 264.394 587.814 230.844 614.485C266.499 652.456 317.103 674.144 370.375 674.144ZM340.335 372.551C340.335 353.25 337.247 334.3 331.071 316.262C244.741 333.808 182.345 407.855 182.345 493.202C182.345 512.504 185.433 531.454 191.61 549.492C277.939 531.945 340.335 457.898 340.335 372.551ZM122.195 500.713C122.335 498.256 122.335 495.729 122.335 493.202C122.335 479.797 120.791 466.461 117.843 453.546C106.754 405.188 75.0996 363.216 30.8819 337.879C23.0912 369.954 19.1608 402.942 19.1608 435.93C19.1608 459.021 21.1962 482.604 25.1968 505.977C49.9025 527.805 80.2233 542.824 113.071 549.492C118.405 533.77 121.493 517.347 122.195 500.713ZM178.625 571.601C161.43 573.707 143.321 573.707 126.055 571.601H125.985C119.528 586.2 111.316 600.097 101.42 612.871C129.354 644.876 145.637 711.764 151.603 740.4L152.796 741.523C159.394 709.728 175.537 644.525 203.191 612.871C193.365 600.097 185.083 586.27 178.625 571.601ZM219.263 631.26L216.385 628.241L215.894 628.452C197.716 651.193 180.66 698.779 169.922 757.175C244.53 819.009 338.791 853.05 435.579 853.05C665.44 853.05 852.418 666.072 852.418 436.211C852.418 357.04 830.099 280.396 787.916 213.789C787.987 215.894 787.987 218 787.846 220.176C787.846 222.913 786.372 225.791 784.056 227.616C779.704 231.055 773.388 230.353 769.949 226.001C761.316 215.122 746.927 211.403 736.259 210.139C765.176 249.795 781.88 297.241 784.688 347.635C786.723 385.325 780.897 423.436 767.843 457.898C754.928 491.939 735.697 520.716 712.255 541C690.006 560.231 664.388 571.18 638.278 572.654C634.067 573.145 630.136 570.758 628.382 566.758C613.993 535.033 569.846 511.17 544.789 499.73C537.911 496.572 530.822 493.624 523.663 490.886C508.292 484.991 478.954 474.814 447.159 469.83C461.267 484.078 471.374 502.327 480.358 518.75L481.972 521.698L482.146 522.013C491.789 539.483 502.7 559.25 518.119 571.25C534.963 584.305 555.739 587.182 583.392 580.234C587.463 579.251 591.604 577.777 595.534 576.373L596.259 576.115C599.94 574.798 603.567 573.502 607.255 572.514C609.782 571.812 612.519 572.093 614.836 573.426C617.222 574.76 618.906 577.006 619.608 579.603C621.012 584.796 618.064 590.13 612.94 591.815C610.895 592.602 608.614 593.349 606.274 594.116C605.483 594.375 604.685 594.637 603.887 594.903L603.256 595.103C599.077 596.428 595.213 597.654 591.604 599.325C574.127 607.396 561.283 618.837 552.299 634.488C544.158 648.736 539.876 664.879 535.805 680.391L535.731 680.672C528.455 708.167 520.97 736.453 492.851 752.121C502.537 755.28 512.784 756.122 523.312 754.367C538.473 751.981 554.124 744.682 569.776 732.82C584.585 721.59 598.272 707.202 610.414 690.006C628.662 664.318 648.174 623.399 643.331 592.868C642.91 590.201 643.612 587.533 645.156 585.357C646.701 583.182 649.017 581.778 651.684 581.357C657.299 580.515 662.352 584.234 663.194 589.709C668.95 626.206 648.174 671.477 626.838 701.657C613.502 720.538 598.412 736.47 581.988 748.893C563.67 762.79 545 771.353 526.541 774.301C503.8 777.95 482.042 772.756 462.671 759.07C460.495 757.526 459.021 755.21 458.6 752.543C458.109 749.876 458.74 747.208 460.284 745.032C461.758 742.997 463.864 741.594 466.18 741.032C501.363 732.482 507.992 707.345 516.397 675.476L516.434 675.337C523.663 647.824 531.314 623.329 550.053 604.027C533.138 602.904 518.68 597.5 505.976 587.604C487.349 573.109 475.15 550.928 464.36 531.309L464.285 531.173L462.53 527.945L462.485 527.863C448.529 502.475 432.74 473.753 403.223 466.742C400.626 466.11 398.38 464.496 396.976 462.25C395.572 459.933 395.151 457.196 395.783 454.599C396.906 449.967 400.696 446.949 405.609 446.879C454.248 444.282 513.346 465.408 530.331 471.865C538.052 474.813 545.772 478.042 553.212 481.411C584.445 495.589 625.153 519.312 643.542 551.948C663.054 549.422 682.285 540.368 699.271 525.699C725.731 502.888 741.032 472.357 749.243 450.74C761.245 418.805 766.649 383.571 764.754 348.688C761.877 295.276 742.225 246.145 708.044 206.63C706.359 204.665 705.447 202.068 705.657 199.4C705.868 196.733 707.061 194.277 709.096 192.522C710.641 191.189 712.536 190.346 714.501 190.136C721.449 189.223 730.363 189.294 738.926 190.276C748.541 191.399 757.244 193.715 764.754 197.225C760.684 187.258 752.823 179.046 741.312 172.8C725.029 163.956 705.798 161.219 692.532 160.447C680.811 159.745 669.441 160.377 659.755 162.131C657.369 162.482 654.912 162.131 652.877 160.868C624.451 145.357 586.059 136.934 547.316 137.425C529.91 137.706 515.522 140.444 504.502 145.567C496.29 149.357 490.605 154.271 487.517 160.096C484.569 165.641 484.078 172.168 485.973 179.537C488.079 187.398 492.781 195.891 500.081 204.735C514.89 222.703 530.12 236.389 545.281 245.443C547.737 246.917 556.37 251.83 562.617 253.234C567.038 254.216 570.267 258.006 570.478 262.569C570.758 264.885 571.11 267.411 571.671 270.079C571.741 268.885 572.022 267.692 572.583 266.569C573.706 264.113 575.742 262.288 578.269 261.375C580.866 260.463 583.532 260.603 585.989 261.726C597.57 267.201 609.081 273.097 620.24 279.343C626.978 283.133 634.769 287.695 641.788 292.889L642.63 293.521C649.087 298.645 655.825 305.453 662.773 313.665C675.617 328.825 685.654 345.389 692.673 362.865C714.431 416.909 705.096 476.147 665.721 534.261C664.247 536.437 662.001 537.982 659.334 538.473C656.667 538.964 654 538.473 651.754 536.928C647.192 533.84 645.999 527.523 649.087 522.961C683.689 471.936 692.743 422.314 675.968 375.499C668.599 354.864 655.123 333.597 639.471 317.735C635.681 332.755 637.787 354.934 641.296 371.709C641.858 374.236 641.366 376.973 639.892 379.219C638.348 381.465 636.102 383.009 633.506 383.57C630.839 384.132 628.171 383.641 625.925 382.167C599.395 364.901 578.97 341.529 565.214 312.682C558.616 298.785 553.773 283.905 551.387 270.57C543.316 267.482 535.525 262.849 530.261 259.48C514.609 249.303 499.238 235.125 484.569 217.298C475.375 206.208 469.339 195.189 466.531 184.451C463.302 172.308 464.426 160.587 469.76 150.55C474.883 140.724 483.727 132.864 496.01 127.178C509.556 120.932 526.751 117.563 546.965 117.212C574.338 116.861 601.29 120.51 626.697 128.301C635.681 131.109 648.596 135.601 659.826 141.637C670.283 140.023 682.004 139.531 693.725 140.233C705.657 140.935 721.8 143.04 737.592 148.936C658.913 66.3965 549.773 19.3014 435.859 19.3014C252.111 19.3014 88.0845 142.269 36.0761 318.508C57.6234 330.159 76.5034 345.108 92.4358 363.006C124.652 399.292 142.409 445.616 142.409 493.413C142.409 496.291 142.339 499.168 142.198 502.046C142.198 502.502 142.163 502.958 142.128 503.414C142.093 503.871 142.058 504.327 142.058 504.783C142.014 505.419 141.977 506.041 141.941 506.655C141.86 508.009 141.782 509.327 141.637 510.679L141.286 513.908C141.221 514.471 141.163 515.028 141.105 515.579C140.975 516.815 140.848 518.028 140.654 519.241C140.584 519.803 140.496 520.382 140.408 520.961C140.321 521.541 140.233 522.12 140.163 522.681C139.882 524.436 139.601 526.12 139.321 527.805L138.689 531.173C138.514 532.016 138.321 532.875 138.128 533.735C137.934 534.595 137.741 535.455 137.566 536.297C137.355 537.35 137.075 538.473 136.794 539.596C136.447 541.099 136.052 542.556 135.649 544.043C135.563 544.36 135.476 544.679 135.39 545L134.618 547.878C134.526 548.179 134.435 548.483 134.342 548.788C133.941 550.119 133.53 551.478 133.074 552.791C145.637 553.984 158.692 553.984 171.255 552.791C170.694 551.036 170.203 549.492 169.711 547.878L168.94 545.07C168.378 543.316 167.887 541.42 167.465 539.596L166.764 536.438C166.343 534.613 165.991 532.928 165.641 531.173L165.009 527.805L165.007 527.79C164.727 526.04 164.447 524.291 164.167 522.611L163.676 519.172C163.491 518.021 163.367 516.839 163.245 515.667C163.18 515.053 163.116 514.441 163.044 513.838C163.009 513.543 162.974 513.262 162.941 512.989C162.838 512.155 162.746 511.402 162.693 510.608C162.623 509.659 162.552 508.693 162.482 507.727C162.412 506.763 162.342 505.8 162.272 504.853L162.131 501.976C161.991 499.098 161.921 496.22 161.921 493.343C161.921 445.546 179.678 399.222 211.894 362.936C243.759 327.07 287.765 303.136 335.843 295.416C340.546 294.714 345.178 297.241 346.933 301.592C355.847 324.263 360.338 348.126 360.338 372.621C360.338 420.419 342.581 466.742 310.366 503.029C308.4 505.204 306.435 507.31 304.4 509.416L301.382 512.504L301.364 512.521C300.317 513.568 299.27 514.615 298.223 515.592L295.697 517.908C295.245 518.322 294.834 518.701 294.452 519.052C293.41 520.012 292.588 520.769 291.766 521.488L288.959 523.804C287.625 524.927 286.362 525.98 285.028 527.033C284.913 527.125 284.795 527.219 284.676 527.315C284.072 527.8 283.427 528.318 282.782 528.787L282.081 529.349C280.817 530.331 279.484 531.314 278.15 532.297L275.062 534.542C273.728 535.525 272.395 536.438 271.061 537.35L267.832 539.455C266.499 540.367 265.165 541.21 263.761 542.052C263.2 542.368 262.638 542.701 262.077 543.035C261.516 543.368 260.954 543.702 260.393 544.017C259.691 544.403 258.989 544.807 258.288 545.21C257.586 545.614 256.884 546.018 256.182 546.404C255.791 546.611 255.409 546.81 255.031 547.006C254.254 547.41 253.498 547.803 252.743 548.228L252.73 548.235C251.331 549.005 249.93 549.775 248.461 550.475L248.458 550.476C247.336 551.037 246.214 551.598 245.022 552.159C244.226 552.557 243.384 552.933 242.536 553.311C241.889 553.6 241.238 553.891 240.6 554.195L237.091 555.739L232.458 557.634L229.019 559.037L225.019 560.511L220.737 562.056C219.895 562.337 219.035 562.6 218.175 562.863C217.316 563.126 216.456 563.389 215.613 563.67L212.385 564.653C210.49 565.214 208.525 565.776 206.56 566.267L203.892 566.969L203.879 566.972C202.199 567.392 200.519 567.812 198.839 568.162C203.962 579.111 210.349 589.569 217.719 599.395C218 599.254 218.491 598.834 218.491 598.834L219.334 598.201C219.473 598.092 219.612 597.981 219.753 597.87C220.96 596.915 222.224 595.916 223.545 594.973C224.001 594.657 224.457 594.324 224.913 593.99C225.37 593.657 225.826 593.323 226.282 593.008L226.913 592.587L226.92 592.582C228.322 591.601 229.724 590.62 231.195 589.639L233.722 587.954L234.634 587.323C235.371 586.867 236.091 586.41 236.81 585.954C237.529 585.498 238.249 585.042 238.986 584.586L242.636 582.409L247.057 579.883L250.777 577.848C251.55 577.461 252.305 577.075 253.06 576.689C253.814 576.303 254.568 575.917 255.339 575.531C255.971 575.215 256.62 574.917 257.269 574.619C257.919 574.32 258.568 574.022 259.2 573.706C260.673 573.004 262.217 572.303 263.761 571.601C264.428 571.32 265.078 571.04 265.727 570.759C266.376 570.478 267.026 570.197 267.692 569.917C268.464 569.601 269.254 569.303 270.044 569.004C270.833 568.706 271.623 568.408 272.395 568.092C273.725 567.532 275.055 567.042 276.384 566.552L276.395 566.548C277.554 566.095 278.676 565.713 279.813 565.327C280.262 565.174 280.712 565.021 281.168 564.863C282.242 564.467 283.361 564.117 284.452 563.776C284.717 563.694 284.979 563.612 285.239 563.529C286.272 563.17 287.334 562.868 288.388 562.569C288.981 562.4 289.571 562.233 290.152 562.056C290.735 561.902 291.318 561.735 291.908 561.567C292.665 561.35 293.433 561.13 294.223 560.933C295.837 560.511 297.522 560.09 299.206 559.669L303.277 558.687C303.946 558.546 304.616 558.405 305.285 558.264C305.949 558.124 306.613 557.984 307.277 557.844L309.313 557.423C309.839 557.318 310.383 557.213 310.927 557.108C311.471 557.002 312.015 556.897 312.541 556.792C313.805 556.581 315.068 556.37 316.332 556.16L321.876 555.317C323.42 555.107 325.035 554.896 326.649 554.756L328.684 554.545C329.105 554.51 329.544 554.458 329.983 554.405C330.422 554.353 330.86 554.3 331.281 554.265C332.335 554.16 333.388 554.09 334.44 554.019C335.493 553.949 336.545 553.879 337.598 553.773H338.581C339.283 553.703 340.055 553.633 340.757 553.633C343.836 553.423 347.055 553.423 350.204 553.423H350.232C413.119 553.423 472.006 580.444 511.802 627.54C515.241 631.611 514.82 637.577 510.819 641.086C479.656 668.67 441.053 686.216 399.222 691.831C387.712 693.375 375.99 694.007 364.409 693.656H363.146C362.636 693.637 362.172 693.618 361.741 693.601C360.571 693.553 359.648 693.516 358.724 693.516L344.827 692.322C344.301 692.252 343.775 692.182 343.248 692.112L341.669 691.901L316.963 687.199L285.239 676.39C284.327 675.968 283.414 675.548 282.431 675.127L260.533 663.756L255.76 660.808L255.719 660.782C254.189 659.808 252.658 658.834 251.128 657.791C249.79 656.916 248.717 656.154 247.686 655.423C247.31 655.156 246.941 654.894 246.566 654.632L245.513 653.86C244.785 653.285 244.14 652.815 243.545 652.381C243.051 652.02 242.59 651.684 242.144 651.333L219.263 631.26ZM610.274 296.399C599.395 290.363 588.375 284.677 577.637 279.694V279.624C575.742 278.782 574.268 277.378 573.215 275.623C575.11 282.993 577.847 290.994 581.216 298.715C589.919 318.859 602.343 336.264 618.135 350.583C616.941 335.703 617.292 317.736 623.047 303.979C618.626 301.171 614.204 298.645 610.274 296.399ZM36.6373 539.245L33.409 537.139L33.549 537.209C32.8472 536.788 32.2156 536.368 31.5138 535.876C34.602 548.229 38.1814 560.441 42.3224 572.303C42.8135 572.548 43.3222 572.776 43.8309 573.004C44.3399 573.232 44.8489 573.461 45.3404 573.706C46.6037 574.268 47.9376 574.899 49.201 575.531C50.6749 576.233 52.2187 577.006 53.6926 577.778C54.3245 578.129 54.9566 578.462 55.5886 578.795C56.2201 579.129 56.8515 579.462 57.483 579.812C58.8532 580.566 60.2902 581.387 61.7289 582.209L61.8345 582.27C62.9839 582.919 63.8129 583.426 64.5751 583.893C64.8834 584.081 65.1807 584.263 65.4839 584.445C66.1858 584.901 66.9052 585.357 67.6247 585.814C68.3442 586.27 69.0637 586.726 69.7656 587.182L70.4673 587.604C70.9586 587.92 71.4324 588.235 71.9062 588.551C72.38 588.867 72.8539 589.182 73.3452 589.498C74.749 590.481 76.1525 591.464 77.5563 592.446L78.258 592.937C78.7421 593.341 79.2495 593.698 79.7668 594.062C80.1493 594.331 80.5372 594.604 80.9251 594.903C81.7804 595.501 82.6097 596.152 83.4447 596.808C83.9801 597.228 84.5179 597.65 85.0663 598.062L86.6805 599.325C94.0501 589.498 100.367 578.971 105.561 568.022C104.884 567.859 104.218 567.707 103.563 567.558C102.518 567.319 101.499 567.087 100.507 566.828L96.8576 565.845L96.8282 565.838C95.2237 565.419 93.6192 565 92.0147 564.512L87.6632 563.108C86.3296 562.687 84.996 562.266 83.6625 561.845L80.2234 560.652C79.4314 560.358 78.7252 560.102 78.0639 559.861C77.1428 559.527 76.3087 559.224 75.4507 558.897L71.9414 557.494C71.4266 557.283 70.9118 557.08 70.397 556.877C69.3676 556.472 68.3382 556.066 67.3088 555.598L67.2843 555.588C66.3099 555.17 65.3349 554.752 64.2909 554.265C62.3337 553.426 60.8637 552.726 59.3958 552.027L59.3777 552.019C58.5335 551.649 57.6496 551.201 56.7857 550.762C56.5004 550.617 56.2174 550.474 55.9386 550.334C54.9938 549.815 54.049 549.327 53.0828 548.828C52.6135 548.586 52.1392 548.341 51.6573 548.089L48.2183 546.194C46.8145 545.422 45.4808 544.649 44.077 543.807C43.5158 543.456 42.9546 543.123 42.3933 542.79C41.8316 542.456 41.27 542.123 40.7082 541.772C39.6549 541.162 38.5578 540.465 37.486 539.783C37.2009 539.602 36.9175 539.422 36.6373 539.245ZM79.5915 636.945C78.8195 637.646 78.0477 638.349 77.2757 639.051V638.98L73.9064 641.999C88.2245 667.055 105.21 690.637 124.371 712.255C114.123 674.003 101.56 644.595 88.3649 628.171L79.5915 636.945ZM64.1508 623.89C67.8005 620.591 70.9585 617.503 73.8362 614.485C67.3088 609.291 60.3605 604.518 52.9909 600.167C56.4301 608.098 60.1501 616.029 64.1508 623.89ZM408.627 151.745C414.101 152.797 417.961 157.64 417.961 163.466L418.032 163.606C418.032 169.432 414.171 174.274 408.697 175.327C366.515 183.469 349.248 205.297 342.721 258.639C341.738 266.43 336.545 269.167 332.404 269.167C328.263 269.167 323.139 266.43 322.227 258.85C315.629 205.438 298.153 183.539 255.409 175.327C249.935 174.274 246.074 169.432 246.074 163.606C246.074 157.781 249.935 152.938 255.409 151.885C297.521 143.673 314.015 122.687 320.612 68.6433C321.385 62.4669 326.087 58.1855 331.983 58.1855C337.878 58.1855 342.581 62.4668 343.353 68.5731C350.021 122.617 366.514 143.603 408.627 151.745ZM386.134 163.571C358.262 173.196 341.587 191.157 332.334 221.51C322.929 191.119 306.014 173.222 277.729 163.606C306.505 153.71 322.999 135.18 331.912 102.403C340.886 135.142 357.351 153.736 386.134 163.571Z" fill="#DBC8B5" fill-opacity="0.1"/>
</svg>
