<svg width="714" height="548" viewBox="0 0 714 548" fill="none" xmlns="http://www.w3.org/2000/svg">
<g clip-path="url(#clip0_2_885)">
<path d="M712.412 337.307C712.495 337.201 712.578 337.094 712.649 336.976C712.708 336.881 712.767 336.786 712.827 336.679C712.898 336.561 712.981 336.431 713.052 336.312C713.099 336.217 713.147 336.135 713.182 336.04C713.253 335.898 713.324 335.767 713.384 335.625C713.419 335.542 713.455 335.447 713.479 335.365C713.538 335.211 713.597 335.068 713.644 334.914C713.668 334.82 713.692 334.737 713.716 334.642C713.751 334.488 713.799 334.334 713.834 334.192C713.858 334.097 713.87 333.991 713.882 333.896C713.905 333.754 713.929 333.6 713.953 333.457C713.965 333.339 713.965 333.232 713.976 333.114C713.976 332.984 714 332.842 714 332.711C714 332.593 714 332.462 714 332.344C714 332.214 714 332.095 713.988 331.965C713.988 331.835 713.953 331.716 713.941 331.586C713.929 331.467 713.917 331.337 713.893 331.219C713.87 331.1 713.846 330.982 713.81 330.863C713.775 330.733 713.751 330.603 713.716 330.472C713.692 330.366 713.644 330.271 713.621 330.176C713.573 330.034 713.526 329.892 713.479 329.75C713.443 329.667 713.407 329.596 713.372 329.513C713.301 329.359 713.23 329.193 713.158 329.039C713.123 328.98 713.087 328.909 713.052 328.85C712.957 328.684 712.862 328.518 712.767 328.352C712.732 328.293 712.684 328.246 712.649 328.186C712.542 328.02 712.423 327.866 712.305 327.712C712.305 327.712 712.293 327.689 712.281 327.677C672.782 278.862 616.854 250.872 558.85 250.872C510.816 250.872 464.371 269.801 427.148 304.354C419.147 293.645 412.378 282.179 406.925 270.132C493.829 247.697 555.958 168.239 555.958 77.6578C555.958 52.6286 551.346 28.1799 542.254 4.97492C542.242 4.92754 542.219 4.892 542.195 4.84462C542.147 4.72617 542.088 4.60771 542.041 4.48926C541.982 4.37081 541.934 4.25235 541.863 4.1339C541.804 4.01545 541.733 3.90884 541.661 3.79038C541.59 3.68378 541.531 3.57717 541.46 3.47056C541.389 3.36395 541.318 3.26919 541.235 3.16258C541.152 3.05597 541.081 2.94937 540.998 2.84276C540.926 2.748 540.843 2.66508 540.772 2.58216C540.677 2.47555 540.583 2.36895 540.488 2.27418C540.405 2.20311 540.334 2.13204 540.251 2.04912C540.144 1.95436 540.037 1.8596 539.931 1.76484C539.848 1.69376 539.765 1.63454 539.67 1.56346C539.551 1.48055 539.445 1.39763 539.326 1.31471C539.231 1.25549 539.136 1.19626 539.042 1.13703C538.923 1.06596 538.805 0.994889 538.686 0.923817C538.579 0.864591 538.473 0.817209 538.366 0.769828C538.247 0.710602 538.129 0.651375 538.01 0.603994C537.892 0.556612 537.773 0.509231 537.667 0.473695C537.548 0.426314 537.429 0.378933 537.311 0.343397C537.192 0.307861 537.074 0.272325 536.943 0.248634C536.825 0.213098 536.694 0.177562 536.576 0.153872C536.457 0.130181 536.327 0.10649 536.208 0.094645C536.078 0.0709543 535.959 0.0472637 535.829 0.0354184C535.711 0.0235731 535.58 0.0117277 535.45 0.0117277C535.319 0.0117277 535.189 -0.000117572 535.059 -0.0119629C534.928 -0.0119629 534.798 -0.0119629 534.667 -0.0119629C534.549 -0.0119629 534.418 -0.0119629 534.3 0.0117277C534.146 0.0235731 533.98 0.0472637 533.826 0.0709543C533.731 0.0827997 533.648 0.094645 533.553 0.10649C533.494 0.10649 533.435 0.118336 533.375 0.130181C441.634 19.1182 375.048 100.958 375.048 194.737C375.048 216.639 378.569 238.043 385.528 258.536C366.762 261.462 347.345 261.462 328.579 258.536C335.538 238.043 339.059 216.627 339.059 194.737C339.011 100.981 272.425 19.1419 180.672 0.153872C180.625 0.153872 180.578 0.142026 180.518 0.130181C180.388 0.10649 180.258 0.0827997 180.115 0.0709543C180.009 0.059109 179.89 0.0354184 179.783 0.0354184C179.606 0.0235731 179.416 0.0117277 179.238 0.0117277C179.167 0.0117277 179.108 0.0117277 179.037 0.0117277C178.823 0.0117277 178.61 0.0235731 178.396 0.0472637C178.361 0.0472637 178.325 0.0472637 178.29 0.0472637C178.053 0.0709543 177.816 0.10649 177.59 0.153872C177.578 0.153872 177.567 0.153872 177.555 0.153872C176.085 0.450005 174.722 1.16072 173.631 2.21496C173.631 2.21496 173.619 2.2268 173.607 2.23865C173.453 2.39264 173.299 2.54663 173.157 2.71246C173.133 2.748 173.097 2.77169 173.074 2.80722C172.955 2.94937 172.837 3.10336 172.73 3.25735C172.683 3.31657 172.635 3.3758 172.6 3.44687C172.505 3.57717 172.422 3.71931 172.339 3.86146C172.291 3.95622 172.232 4.03914 172.185 4.1339C172.114 4.2642 172.054 4.3945 171.995 4.53664C171.948 4.64325 171.9 4.73801 171.853 4.85646C171.829 4.90384 171.805 4.95123 171.794 4.99861C162.701 28.1917 158.09 52.6405 158.09 77.6815C158.09 168.263 220.219 247.721 307.111 270.156C301.658 282.215 294.889 293.669 286.876 304.377C249.653 269.836 203.219 250.896 155.174 250.896C97.194 250.896 41.2652 278.886 1.73087 327.701C1.73087 327.701 1.71902 327.724 1.70716 327.736C1.58862 327.878 1.48193 328.032 1.37524 328.186C1.32782 328.257 1.28041 328.317 1.23299 328.388C1.13815 328.53 1.05517 328.672 0.984047 328.826C0.93663 328.909 0.889213 328.992 0.841795 329.075C0.782523 329.205 0.723252 329.335 0.66398 329.466C0.616562 329.572 0.569145 329.679 0.521727 329.785C0.47431 329.892 0.450601 330.01 0.403184 330.117C0.355766 330.247 0.308349 330.378 0.272786 330.52C0.249077 330.615 0.225368 330.709 0.20166 330.804C0.166097 330.958 0.130534 331.112 0.0949705 331.266C0.0831161 331.349 0.0712618 331.432 0.0594074 331.515C0.0356987 331.681 0.01199 331.847 0.00013561 332.012C0.00013561 332.095 0.00013561 332.19 0.00013561 332.273C0.00013561 332.439 -0.0117188 332.605 -0.0117188 332.759C-0.0117188 332.853 -0.0117188 332.948 0.00013561 333.043C0.00013561 333.197 0.01199 333.351 0.0356987 333.505C0.047553 333.611 0.0712618 333.718 0.0831161 333.825C0.106825 333.967 0.118679 334.097 0.154242 334.239C0.177951 334.358 0.213514 334.476 0.249077 334.595C0.28464 334.713 0.308349 334.843 0.343912 334.962C0.379475 335.08 0.426893 335.199 0.47431 335.329C0.521727 335.447 0.55729 335.566 0.604708 335.673C0.652125 335.791 0.711397 335.909 0.770669 336.028C0.829941 336.146 0.877358 336.253 0.93663 336.371C0.995902 336.478 1.06703 336.585 1.1263 336.691C1.19743 336.798 1.2567 336.916 1.32782 337.023C1.39895 337.13 1.48193 337.224 1.55306 337.331C1.63604 337.438 1.70716 337.544 1.79014 337.651C1.87312 337.757 1.97981 337.852 2.07465 337.959C2.15763 338.053 2.24061 338.136 2.32359 338.231C2.3473 338.255 2.35915 338.267 2.38286 338.29C39.57 373.945 88.4692 393.584 140.059 393.584C196.711 393.584 250.044 369.74 287.812 327.878C324.241 371.753 349.135 472.214 349.135 540.218C349.135 544.541 352.644 548.047 356.97 548.047C361.297 548.047 364.806 544.541 364.806 540.218C364.806 472.214 389.712 371.753 426.129 327.89C463.897 369.74 517.23 393.584 573.882 393.584C625.46 393.584 674.347 373.945 711.558 338.29C711.582 338.267 711.594 338.255 711.617 338.231C711.712 338.136 711.795 338.042 711.878 337.959C711.973 337.864 712.068 337.757 712.151 337.663C712.234 337.568 712.305 337.461 712.376 337.366L712.412 337.307ZM529.949 16.9861C536.777 36.4598 540.251 56.8337 540.251 77.6341C540.251 161.771 482.081 235.473 400.998 255.432C394.158 235.982 390.684 215.608 390.684 194.749C390.684 110.611 448.865 36.9099 529.961 16.9742L529.949 16.9861ZM173.761 77.646C173.761 56.8337 177.235 36.4598 184.063 16.9979C265.158 36.9336 323.34 110.635 323.34 194.772C323.34 215.62 319.866 236.006 313.026 255.456C231.943 235.497 173.773 161.783 173.773 77.646H173.761ZM140.095 377.877C95.0128 377.877 52.183 361.602 18.6589 331.894C55.2177 289.689 103.429 266.531 155.186 266.531C199.545 266.531 242.517 284.24 276.954 316.519C242.125 355.596 192.657 377.877 140.095 377.877ZM357.006 463.543C346.835 408.403 326.908 348.643 298.019 315.618C308.024 302.553 316.334 288.433 322.783 273.496C334.032 275.439 345.507 276.446 357.006 276.446C368.505 276.446 379.98 275.451 391.23 273.496C397.69 288.445 405.988 302.565 415.993 315.63C387.104 348.667 367.177 408.415 357.006 463.555V463.543ZM437.059 316.519C471.495 284.24 514.468 266.531 558.827 266.531C610.606 266.531 658.818 289.689 695.353 331.894C661.817 361.602 618.976 377.877 573.917 377.877C521.355 377.877 471.887 355.596 437.059 316.519Z" fill="#DBC8B5" fill-opacity="0.1"/>
</g>
<defs>
<clipPath id="clip0_2_885">
<rect width="714" height="548" fill="white"/>
</clipPath>
</defs>
</svg>
