<svg width="247" height="52" viewBox="0 0 247 52" fill="none" xmlns="http://www.w3.org/2000/svg">
<g clip-path="url(#clip0_2_845)">
<path d="M123.437 49.8241C122.966 50.2727 122.421 50.6317 121.81 50.9009C121.162 51.1551 120.478 51.2822 119.786 51.2822H119.646C119.602 51.2822 119.565 51.2822 119.513 51.2673C119.108 51.2299 118.696 51.1028 118.284 50.8859C117.864 50.6691 117.482 50.355 117.128 49.9587C116.782 49.5623 116.488 49.0539 116.267 48.4557C116.046 47.8574 115.936 47.147 115.936 46.3469C115.936 45.4945 116.061 44.7467 116.311 44.1261C116.562 43.5054 116.878 42.9894 117.261 42.5856C117.636 42.1818 118.056 41.8827 118.505 41.6883C118.954 41.4939 119.381 41.3967 119.778 41.3967C120.455 41.3967 121.103 41.5163 121.714 41.7631C122.325 42.0024 122.877 42.3538 123.363 42.8025L123.437 42.8698L123.864 42.3987L123.79 42.3314C123.253 41.8304 122.634 41.4416 121.942 41.1724C120.551 40.6265 118.947 40.634 117.548 41.2097C117.202 41.3443 116.863 41.5163 116.562 41.7182C116.252 41.9201 115.973 42.1445 115.708 42.3912C115.163 42.9221 114.743 43.5129 114.464 44.1634C114.162 44.8439 114 45.5842 114 46.3469C114 46.7208 114.037 47.0947 114.118 47.4536C114.191 47.8126 114.309 48.1715 114.464 48.508C114.743 49.166 115.163 49.7642 115.708 50.2952C116.216 50.7887 116.834 51.185 117.548 51.4766C118.255 51.7683 119.005 51.9178 119.778 51.9178C120.551 51.9178 121.309 51.7683 122.038 51.4766C122.377 51.3346 122.701 51.1626 123.01 50.9682C123.312 50.7737 123.599 50.5494 123.864 50.2952L123.93 50.2279L123.51 49.7568L123.437 49.8241Z" fill="white"/>
<path d="M137.776 42.4959C137.518 42.2342 137.223 41.9949 136.914 41.8005C136.605 41.6061 136.274 41.4341 135.935 41.2845C135.575 41.1499 135.214 41.0378 134.846 40.963C134.11 40.806 133.285 40.806 132.549 40.963C132.181 41.0378 131.813 41.1499 131.453 41.2845C131.114 41.4266 130.783 41.6061 130.474 41.8005C130.164 41.9949 129.87 42.2342 129.612 42.4959C129.355 42.7427 129.119 43.0194 128.906 43.311C128.7 43.6026 128.516 43.9242 128.361 44.2532C128.067 44.9337 127.912 45.6739 127.912 46.4367C127.912 46.8106 127.949 47.1844 128.022 47.5434C128.096 47.9023 128.206 48.2538 128.361 48.5977C128.655 49.2632 129.075 49.8615 129.605 50.37C130.128 50.8784 130.746 51.2822 131.445 51.5664C132.174 51.858 132.925 52.0076 133.683 52.0076C134.441 52.0076 135.199 51.858 135.928 51.5664C136.627 51.2822 137.246 50.8784 137.768 50.37C138.026 50.1157 138.269 49.839 138.475 49.5474C138.688 49.2558 138.865 48.9342 139.012 48.5977C139.167 48.2612 139.277 47.9023 139.358 47.5434C139.432 47.177 139.476 46.8106 139.476 46.4367C139.476 45.659 139.321 44.9262 139.012 44.2532C138.725 43.5951 138.306 43.0044 137.768 42.4959H137.776ZM133.705 51.372C133.308 51.372 132.873 51.2748 132.424 51.0803C131.975 50.8859 131.556 50.5868 131.173 50.183C130.79 49.7792 130.474 49.2633 130.231 48.6426C129.988 48.022 129.863 47.2817 129.863 46.4367C129.863 45.5917 129.988 44.8364 130.231 44.2158C130.481 43.5951 130.797 43.0792 131.173 42.6754C131.548 42.2716 131.975 41.9725 132.424 41.7706C132.873 41.5762 133.308 41.4715 133.705 41.4715C134.102 41.4715 134.551 41.5687 135.001 41.7706C135.45 41.965 135.869 42.2716 136.252 42.6754C136.635 43.0792 136.951 43.5951 137.194 44.2158C137.437 44.8364 137.562 45.5842 137.562 46.4367C137.562 47.2891 137.437 48.0294 137.187 48.6426C136.936 49.2558 136.62 49.7792 136.244 50.183C135.869 50.5868 135.45 50.8859 135.001 51.0803C134.551 51.2748 134.11 51.372 133.705 51.372Z" fill="white"/>
<path d="M143.892 51.9102H145.784V46.7132H151.592V46.0851H145.784V41.5686H152.438V40.9404H143.892V51.9102Z" fill="white"/>
<path d="M157.186 51.9102H159.085V46.7132H164.892V46.0851H159.085V41.5686H165.739V40.9404H157.186V51.9102Z" fill="white"/>
<path d="M170.502 51.8953H179.063V51.2672H172.394V46.6983H178.216V46.0702H172.394V41.5611H179.063V40.9255H170.502V51.8953Z" fill="white"/>
<path d="M192.416 41.5611V40.9255H183.848V51.8953H192.416V51.2672H185.747V46.6983H191.562V46.0702H185.747V41.5611H192.416Z" fill="white"/>
<path d="M63.9651 35.5361H60V10H79.4726V11.0266H63.9651V22.1977H77.4937V23.2243H63.9651V35.5437V35.5361Z" fill="#9E8069"/>
<path d="M87.0275 32.1825C85.8063 30.9886 84.8573 29.6122 84.1805 28.0532C83.8274 27.2624 83.5699 26.4487 83.4081 25.6046C83.2462 24.7605 83.158 23.9011 83.158 23.0266C83.158 21.2319 83.4964 19.5361 84.1805 17.9392C84.5336 17.1711 84.9456 16.4411 85.4164 15.7491C85.8946 15.057 86.4242 14.4183 87.0275 13.8479C87.6233 13.2319 88.2781 12.692 88.9916 12.2281C89.7052 11.7719 90.4482 11.3688 91.2354 11.0266C92.0593 10.7072 92.8979 10.4563 93.7439 10.2738C94.5899 10.0913 95.4653 10 96.3775 10C97.2897 10 98.1651 10.0913 99.0111 10.2738C99.8571 10.4563 100.696 10.7072 101.52 11.0266C102.307 11.3688 103.05 11.7719 103.763 12.2281C104.477 12.6844 105.132 13.2243 105.728 13.8479C106.963 15.0418 107.912 16.4106 108.575 17.9468C109.273 19.5285 109.627 21.2243 109.627 23.0342C109.627 23.9087 109.538 24.7681 109.362 25.6122C109.185 26.4563 108.92 27.27 108.575 28.0608C108.244 28.8517 107.839 29.5894 107.353 30.2662C106.868 30.9506 106.323 31.5894 105.728 32.1901C104.528 33.384 103.131 34.3118 101.52 34.9734C99.8498 35.6578 98.1357 36 96.3775 36C94.6193 36 92.9126 35.6578 91.2354 34.9734C89.6243 34.3118 88.2192 33.384 87.0275 32.1901V32.1825ZM105.639 23.0266C105.639 20.9582 105.345 19.1711 104.757 17.6654C104.168 16.1597 103.418 14.9202 102.513 13.9392C101.601 12.9582 100.607 12.2281 99.5261 11.7491C98.4447 11.27 97.4074 11.0266 96.4143 11.0266C95.4212 11.0266 94.4207 11.27 93.332 11.7491C92.2506 12.2281 91.2501 12.9582 90.3452 13.9392C89.433 14.9202 88.69 16.1597 88.1015 17.6654C87.513 19.1711 87.2187 20.9582 87.2187 23.0266C87.2187 25.0951 87.513 26.8517 88.1015 28.3574C88.69 29.8631 89.4404 31.1027 90.3452 32.0837C91.2501 33.0646 92.2506 33.7871 93.332 34.2586C94.4134 34.73 95.4433 34.9658 96.4143 34.9658C97.3854 34.9658 98.4447 34.73 99.5261 34.2586C100.607 33.7871 101.601 33.0646 102.498 32.0837C103.396 31.1027 104.146 29.8631 104.742 28.3574C105.338 26.8517 105.639 25.0799 105.639 23.0266Z" fill="#9E8069"/>
<path d="M133.005 35.5665L123.471 23.1787H119.815V35.5665H115.85V10H127.37C128.466 10 129.496 10.1597 130.467 10.4791C131.438 10.7985 132.284 11.27 133.005 11.8859C133.726 12.5019 134.278 13.2167 134.66 14.0304C135.043 14.8441 135.234 15.6958 135.234 16.5932C135.234 17.4905 135.043 18.3422 134.66 19.1559C134.278 19.9696 133.726 20.6844 133.005 21.3004C132.321 21.9011 131.534 22.3498 130.636 22.6616C129.739 22.9734 128.76 23.1483 127.708 23.1863L137.242 35.5741H132.998L133.005 35.5665ZM119.815 22.1597H126.038C126.965 22.1597 127.767 22.0228 128.437 21.7414C129.106 21.4677 129.65 21.0722 130.062 20.5703C130.474 20.0684 130.776 19.4829 130.974 18.8137C131.173 18.1445 131.269 17.3992 131.269 16.5932C131.269 15.7871 131.173 15.0342 130.974 14.3498C130.776 13.6654 130.474 13.0798 130.062 12.5932C129.65 12.0989 129.106 11.7186 128.437 11.4373C127.767 11.1635 126.965 11.019 126.038 11.019H119.815V22.1597Z" fill="#9E8069"/>
<path d="M149.631 35.5741V11.0266H139.074V10H164.152V11.0266H153.596V35.5741H149.631Z" fill="#9E8069"/>
<path d="M173.252 31.9544C172.715 31.3536 172.244 30.73 171.847 30.0837C171.442 29.4297 171.104 28.7376 170.824 28C170.545 27.2624 170.339 26.4563 170.206 25.5817C170.074 24.7072 170.008 23.7338 170.008 22.6692V10H173.973V22.7072C173.973 23.5361 174.002 24.4106 174.069 25.3156C174.127 26.2205 174.245 27.1179 174.407 28C174.569 28.8821 174.812 29.7262 175.135 30.5247C175.452 31.3232 175.871 32.0304 176.386 32.6388C176.901 33.2471 177.533 33.7338 178.291 34.0913C179.042 34.4563 179.946 34.6388 180.998 34.6388H181.153C182.514 34.6388 183.816 34.3422 185.052 33.7567C186.288 33.1711 187.384 32.3346 188.333 31.2471C189.304 30.1141 190.039 28.8289 190.547 27.3764C191.055 25.924 191.312 24.365 191.334 22.7072V10H192.327V22.6768C192.327 24.4715 192.04 26.1597 191.474 27.7491C190.908 29.3384 190.098 30.7376 189.046 31.9544C188.075 33.0875 186.898 33.9848 185.515 34.6388C184.132 35.3232 182.676 35.6654 181.153 35.6654C179.63 35.6654 178.173 35.3232 176.79 34.6388C175.452 34 174.275 33.1027 173.259 31.9544H173.252Z" fill="#9E8069"/>
<path d="M219.716 34.9278L199.53 12.4639V35.5361H198.537V10H201.818L219.246 29.3308V10H220.239V35.5361L219.709 34.9278H219.716Z" fill="#9E8069"/>
<path d="M226.498 35.5361V10H246V11.0266H230.456V22.1977H244.014V23.2243H230.456V34.5247H246V35.5513H226.498V35.5361Z" fill="#9E8069"/>
<path d="M23.7904 47.9472C36.718 47.9472 47.1979 37.3009 47.1979 24.168C47.1979 11.0352 36.718 0.388916 23.7904 0.388916C10.8627 0.388916 0.382812 11.0352 0.382812 24.168C0.382812 37.3009 10.8627 47.9472 23.7904 47.9472Z" fill="#074F4B"/>
<path d="M22.2519 8.84613C19.8523 8.37504 18.9174 7.17112 18.5347 4.06787C18.5052 3.80615 18.3138 3.62669 18.0709 3.62669C17.828 3.62669 17.6366 3.80615 17.5998 4.06787C17.2244 7.17112 16.2896 8.37504 13.89 8.84613C13.6691 8.891 13.5072 9.0929 13.5072 9.34714C13.5072 9.60138 13.6691 9.7958 13.89 9.84067C16.3264 10.3192 17.3201 11.5755 17.6882 14.6414C17.7397 15.0526 18.0341 15.0751 18.093 15.0751C18.1519 15.0751 18.4463 15.0526 18.4979 14.6264C18.8659 11.5605 19.8523 10.3118 22.2519 9.84067C22.4801 9.7958 22.6347 9.58642 22.6347 9.33966C22.6347 9.0929 22.4801 8.891 22.2519 8.84613ZM18.093 13.1982C17.5851 10.9997 16.5399 9.8631 14.5377 9.34714C16.584 8.80874 17.5925 7.62726 18.0709 5.21944C18.5494 7.62726 19.5652 8.80874 21.6041 9.33966C19.6241 9.8631 18.5935 10.9922 18.093 13.1982ZM22.2519 8.84613C19.8523 8.37504 18.9174 7.17112 18.5347 4.06787C18.5052 3.80615 18.3138 3.62669 18.0709 3.62669C17.828 3.62669 17.6366 3.80615 17.5998 4.06787C17.2244 7.17112 16.2896 8.37504 13.89 8.84613C13.6691 8.891 13.5072 9.0929 13.5072 9.34714C13.5072 9.60138 13.6691 9.7958 13.89 9.84067C16.3264 10.3192 17.3201 11.5755 17.6882 14.6414C17.7397 15.0526 18.0341 15.0751 18.093 15.0751C18.1519 15.0751 18.4463 15.0526 18.4979 14.6264C18.8659 11.5605 19.8523 10.3118 22.2519 9.84067C22.4801 9.7958 22.6347 9.58642 22.6347 9.33966C22.6347 9.0929 22.4801 8.891 22.2519 8.84613ZM18.093 13.1982C17.5851 10.9997 16.5399 9.8631 14.5377 9.34714C16.584 8.80874 17.5925 7.62726 18.0709 5.21944C18.5494 7.62726 19.5652 8.80874 21.6041 9.33966C19.6241 9.8631 18.5935 10.9922 18.093 13.1982ZM22.2519 8.84613C19.8523 8.37504 18.9174 7.17112 18.5347 4.06787C18.5052 3.80615 18.3138 3.62669 18.0709 3.62669C17.828 3.62669 17.6366 3.80615 17.5998 4.06787C17.2244 7.17112 16.2896 8.37504 13.89 8.84613C13.6691 8.891 13.5072 9.0929 13.5072 9.34714C13.5072 9.60138 13.6691 9.7958 13.89 9.84067C16.3264 10.3192 17.3201 11.5755 17.6882 14.6414C17.7397 15.0526 18.0341 15.0751 18.093 15.0751C18.1519 15.0751 18.4463 15.0526 18.4979 14.6264C18.8659 11.5605 19.8523 10.3118 22.2519 9.84067C22.4801 9.7958 22.6347 9.58642 22.6347 9.33966C22.6347 9.0929 22.4801 8.891 22.2519 8.84613ZM18.093 13.1982C17.5851 10.9997 16.5399 9.8631 14.5377 9.34714C16.584 8.80874 17.5925 7.62726 18.0709 5.21944C18.5494 7.62726 19.5652 8.80874 21.6041 9.33966C19.6241 9.8631 18.5935 10.9922 18.093 13.1982ZM22.2519 8.84613C19.8523 8.37504 18.9174 7.17112 18.5347 4.06787C18.5052 3.80615 18.3138 3.62669 18.0709 3.62669C17.828 3.62669 17.6366 3.80615 17.5998 4.06787C17.2244 7.17112 16.2896 8.37504 13.89 8.84613C13.6691 8.891 13.5072 9.0929 13.5072 9.34714C13.5072 9.60138 13.6691 9.7958 13.89 9.84067C16.3264 10.3192 17.3201 11.5755 17.6882 14.6414C17.7397 15.0526 18.0341 15.0751 18.093 15.0751C18.1519 15.0751 18.4463 15.0526 18.4979 14.6264C18.8659 11.5605 19.8523 10.3118 22.2519 9.84067C22.4801 9.7958 22.6347 9.58642 22.6347 9.33966C22.6347 9.0929 22.4801 8.891 22.2519 8.84613ZM18.093 13.1982C17.5851 10.9997 16.5399 9.8631 14.5377 9.34714C16.584 8.80874 17.5925 7.62726 18.0709 5.21944C18.5494 7.62726 19.5652 8.80874 21.6041 9.33966C19.6241 9.8631 18.5935 10.9922 18.093 13.1982ZM22.2519 8.84613C19.8523 8.37504 18.9174 7.17112 18.5347 4.06787C18.5052 3.80615 18.3138 3.62669 18.0709 3.62669C17.828 3.62669 17.6366 3.80615 17.5998 4.06787C17.2244 7.17112 16.2896 8.37504 13.89 8.84613C13.6691 8.891 13.5072 9.0929 13.5072 9.34714C13.5072 9.60138 13.6691 9.7958 13.89 9.84067C16.3264 10.3192 17.3201 11.5755 17.6882 14.6414C17.7397 15.0526 18.0341 15.0751 18.093 15.0751C18.1519 15.0751 18.4463 15.0526 18.4979 14.6264C18.8659 11.5605 19.8523 10.3118 22.2519 9.84067C22.4801 9.7958 22.6347 9.58642 22.6347 9.33966C22.6347 9.0929 22.4801 8.891 22.2519 8.84613ZM18.093 13.1982C17.5851 10.9997 16.5399 9.8631 14.5377 9.34714C16.584 8.80874 17.5925 7.62726 18.0709 5.21944C18.5494 7.62726 19.5652 8.80874 21.6041 9.33966C19.6241 9.8631 18.5935 10.9922 18.093 13.1982ZM22.2519 8.84613C19.8523 8.37504 18.9174 7.17112 18.5347 4.06787C18.5052 3.80615 18.3138 3.62669 18.0709 3.62669C17.828 3.62669 17.6366 3.80615 17.5998 4.06787C17.2244 7.17112 16.2896 8.37504 13.89 8.84613C13.6691 8.891 13.5072 9.0929 13.5072 9.34714C13.5072 9.60138 13.6691 9.7958 13.89 9.84067C16.3264 10.3192 17.3201 11.5755 17.6882 14.6414C17.7397 15.0526 18.0341 15.0751 18.093 15.0751C18.1519 15.0751 18.4463 15.0526 18.4979 14.6264C18.8659 11.5605 19.8523 10.3118 22.2519 9.84067C22.4801 9.7958 22.6347 9.58642 22.6347 9.33966C22.6347 9.0929 22.4801 8.891 22.2519 8.84613ZM18.093 13.1982C17.5851 10.9997 16.5399 9.8631 14.5377 9.34714C16.584 8.80874 17.5925 7.62726 18.0709 5.21944C18.5494 7.62726 19.5652 8.80874 21.6041 9.33966C19.6241 9.8631 18.5935 10.9922 18.093 13.1982ZM22.2519 8.84613C19.8523 8.37504 18.9174 7.17112 18.5347 4.06787C18.5052 3.80615 18.3138 3.62669 18.0709 3.62669C17.828 3.62669 17.6366 3.80615 17.5998 4.06787C17.2244 7.17112 16.2896 8.37504 13.89 8.84613C13.6691 8.891 13.5072 9.0929 13.5072 9.34714C13.5072 9.60138 13.6691 9.7958 13.89 9.84067C16.3264 10.3192 17.3201 11.5755 17.6882 14.6414C17.7397 15.0526 18.0341 15.0751 18.093 15.0751C18.1519 15.0751 18.4463 15.0526 18.4979 14.6264C18.8659 11.5605 19.8523 10.3118 22.2519 9.84067C22.4801 9.7958 22.6347 9.58642 22.6347 9.33966C22.6347 9.0929 22.4801 8.891 22.2519 8.84613ZM18.093 13.1982C17.5851 10.9997 16.5399 9.8631 14.5377 9.34714C16.584 8.80874 17.5925 7.62726 18.0709 5.21944C18.5494 7.62726 19.5652 8.80874 21.6041 9.33966C19.6241 9.8631 18.5935 10.9922 18.093 13.1982ZM22.2519 8.84613C19.8523 8.37504 18.9174 7.17112 18.5347 4.06787C18.5052 3.80615 18.3138 3.62669 18.0709 3.62669C17.828 3.62669 17.6366 3.80615 17.5998 4.06787C17.2244 7.17112 16.2896 8.37504 13.89 8.84613C13.6691 8.891 13.5072 9.0929 13.5072 9.34714C13.5072 9.60138 13.6691 9.7958 13.89 9.84067C16.3264 10.3192 17.3201 11.5755 17.6882 14.6414C17.7397 15.0526 18.0341 15.0751 18.093 15.0751C18.1519 15.0751 18.4463 15.0526 18.4979 14.6264C18.8659 11.5605 19.8523 10.3118 22.2519 9.84067C22.4801 9.7958 22.6347 9.58642 22.6347 9.33966C22.6347 9.0929 22.4801 8.891 22.2519 8.84613ZM18.093 13.1982C17.5851 10.9997 16.5399 9.8631 14.5377 9.34714C16.584 8.80874 17.5925 7.62726 18.0709 5.21944C18.5494 7.62726 19.5652 8.80874 21.6041 9.33966C19.6241 9.8631 18.5935 10.9922 18.093 13.1982ZM22.2519 8.84613C19.8523 8.37504 18.9174 7.17112 18.5347 4.06787C18.5052 3.80615 18.3138 3.62669 18.0709 3.62669C17.828 3.62669 17.6366 3.80615 17.5998 4.06787C17.2244 7.17112 16.2896 8.37504 13.89 8.84613C13.6691 8.891 13.5072 9.0929 13.5072 9.34714C13.5072 9.60138 13.6691 9.7958 13.89 9.84067C16.3264 10.3192 17.3201 11.5755 17.6882 14.6414C17.7397 15.0526 18.0341 15.0751 18.093 15.0751C18.1519 15.0751 18.4463 15.0526 18.4979 14.6264C18.8659 11.5605 19.8523 10.3118 22.2519 9.84067C22.4801 9.7958 22.6347 9.58642 22.6347 9.33966C22.6347 9.0929 22.4801 8.891 22.2519 8.84613ZM18.093 13.1982C17.5851 10.9997 16.5399 9.8631 14.5377 9.34714C16.584 8.80874 17.5925 7.62726 18.0709 5.21944C18.5494 7.62726 19.5652 8.80874 21.6041 9.33966C19.6241 9.8631 18.5935 10.9922 18.093 13.1982ZM22.2519 8.84613C19.8523 8.37504 18.9174 7.17112 18.5347 4.06787C18.5052 3.80615 18.3138 3.62669 18.0709 3.62669C17.828 3.62669 17.6366 3.80615 17.5998 4.06787C17.2244 7.17112 16.2896 8.37504 13.89 8.84613C13.6691 8.891 13.5072 9.0929 13.5072 9.34714C13.5072 9.60138 13.6691 9.7958 13.89 9.84067C16.3264 10.3192 17.3201 11.5755 17.6882 14.6414C17.7397 15.0526 18.0341 15.0751 18.093 15.0751C18.1519 15.0751 18.4463 15.0526 18.4979 14.6264C18.8659 11.5605 19.8523 10.3118 22.2519 9.84067C22.4801 9.7958 22.6347 9.58642 22.6347 9.33966C22.6347 9.0929 22.4801 8.891 22.2519 8.84613ZM18.093 13.1982C17.5851 10.9997 16.5399 9.8631 14.5377 9.34714C16.584 8.80874 17.5925 7.62726 18.0709 5.21944C18.5494 7.62726 19.5652 8.80874 21.6041 9.33966C19.6241 9.8631 18.5935 10.9922 18.093 13.1982ZM23.7903 0C10.6733 0 0 10.8427 0 24.168C0 37.4932 10.6733 48.3359 23.7903 48.3359C36.9074 48.3359 47.5806 37.4932 47.5806 24.168C47.5806 10.8427 36.9074 0 23.7903 0ZM0.736087 24.168C0.736087 22.1938 0.978995 20.2796 1.42801 18.455C3.97487 19.8683 5.82245 22.2761 6.4702 25.1176C6.63214 25.8355 6.72047 26.5907 6.72047 27.3609C6.72047 27.503 6.71311 27.6451 6.70575 27.7872C6.66895 28.7817 6.47756 29.7538 6.15368 30.6885C4.19569 30.3072 2.45853 29.4098 1.07469 28.1611C0.853861 26.8599 0.736087 25.5289 0.736087 24.168ZM2.02424 31.8924C1.74453 31.0699 1.50162 30.2174 1.31023 29.3575C1.33232 29.3724 1.3544 29.3874 1.37648 29.4024C1.42801 29.4472 1.4869 29.4846 1.54578 29.5295C1.61939 29.5818 1.68564 29.6342 1.75925 29.679C1.81813 29.7164 1.87702 29.7613 1.93591 29.7987C2.00952 29.8435 2.08313 29.8959 2.15673 29.9408C2.21562 29.9781 2.27451 30.0155 2.34076 30.0454C2.41436 30.0903 2.48797 30.1352 2.56158 30.18C2.62783 30.2174 2.68672 30.2473 2.75296 30.2847C2.82657 30.3221 2.90754 30.367 2.98115 30.4044C3.0474 30.4343 3.10629 30.4717 3.17253 30.5016C3.2535 30.539 3.32711 30.5764 3.40808 30.6137C3.47433 30.6437 3.53322 30.6736 3.59946 30.7035C3.68043 30.7334 3.76876 30.7708 3.84973 30.8082C3.90862 30.8306 3.97487 30.8605 4.04112 30.8829C4.12209 30.9129 4.21042 30.9502 4.29875 30.9802C4.35763 31.0026 4.42388 31.025 4.48277 31.0475C4.57846 31.0774 4.66679 31.1073 4.76248 31.1372C4.82137 31.1521 4.88026 31.1746 4.93914 31.1895C5.04219 31.2194 5.14525 31.2494 5.2483 31.2793C5.29982 31.2867 5.34399 31.3017 5.39552 31.3167C5.55009 31.354 5.70467 31.3914 5.85925 31.4213H5.86661C5.53537 32.1616 5.12316 32.8645 4.62999 33.5076C4.61526 33.5001 4.60054 33.4927 4.58582 33.4777C4.52693 33.4328 4.46805 33.388 4.40916 33.3356C4.33555 33.2833 4.26194 33.2235 4.18833 33.1636C4.12209 33.1188 4.0632 33.0739 4.00431 33.029C3.92334 32.9767 3.84973 32.9169 3.76876 32.8645C3.70988 32.8271 3.64363 32.7823 3.57738 32.7374C3.50377 32.6925 3.4228 32.6402 3.34919 32.5879C3.28295 32.5505 3.2167 32.5131 3.15045 32.4682C3.06948 32.4234 2.98851 32.3785 2.90754 32.3336C2.84129 32.2962 2.77505 32.2588 2.7088 32.2215C2.62783 32.1841 2.54686 32.1392 2.46589 32.0943C2.39228 32.0644 2.32603 32.027 2.25243 31.9971C2.17882 31.9597 2.10521 31.9223 2.02424 31.8924ZM2.42909 32.9618C3.02532 33.2908 3.59946 33.6721 4.12945 34.1133C3.87182 34.3975 3.59946 34.6592 3.31239 34.9134C2.98851 34.2778 2.69408 33.6273 2.42909 32.9618ZM3.69516 35.6313C3.69516 35.6313 3.73196 35.6014 3.74668 35.5864L3.87918 35.4743C3.87918 35.4743 3.94542 35.4144 3.98223 35.3845C4.01903 35.3471 4.0632 35.3023 4.1 35.2649C4.13681 35.235 4.16625 35.2051 4.20306 35.1677C4.23986 35.1303 4.28402 35.0929 4.32083 35.0555C4.35763 35.0181 4.38708 34.9882 4.41652 34.9508C4.46069 34.9134 4.49749 34.8686 4.53429 34.8312C4.56374 34.7938 4.60054 34.7639 4.62999 34.7265C4.65207 34.7041 4.67415 34.6816 4.69623 34.6517C5.66051 35.7659 6.44076 37.9344 6.9781 40.1777C5.71203 38.8018 4.6079 37.2839 3.69516 35.6313ZM8.02334 41.2396C7.45656 38.4205 6.48492 35.4443 5.20413 34.046C5.80036 33.2833 6.29354 32.4458 6.66895 31.5634C7.67738 31.698 8.73735 31.698 9.75315 31.5634C10.1212 32.4458 10.6144 33.2833 11.2106 34.046C9.89301 35.4967 8.89929 38.6299 8.3325 41.5312C8.22945 41.434 8.1264 41.3368 8.02334 41.2396ZM9.70162 27.3609C9.70162 22.4331 13.2275 18.2456 18.1298 17.3034C18.5052 18.3653 18.6966 19.4869 18.6966 20.631C18.6966 25.5588 15.1707 29.7389 10.261 30.6885C9.88564 29.6192 9.70162 28.505 9.70162 27.3609ZM23.7903 47.5881C18.1813 47.5881 13.0287 45.5393 9.02442 42.1444C9.53232 39.2954 10.4745 36.0874 11.7185 34.6517C11.7406 34.6816 11.7627 34.7041 11.7847 34.7265C11.8216 34.7639 11.851 34.7938 11.8804 34.8312C11.9246 34.8686 11.9614 34.9134 11.9982 34.9508C12.0277 34.9882 12.0645 35.0181 12.0939 35.0555C12.1381 35.0929 12.1749 35.1303 12.2117 35.1677C12.2485 35.2051 12.2779 35.235 12.3147 35.2649C12.3589 35.3023 12.3957 35.3397 12.4399 35.3845C12.4693 35.4144 12.5061 35.4443 12.5356 35.4743L12.6681 35.5864C12.6681 35.5864 12.7343 35.6462 12.7637 35.6762C12.8079 35.7135 12.8594 35.7509 12.9036 35.7883C12.933 35.8182 12.9698 35.8407 12.9993 35.8706C13.0508 35.908 13.095 35.9454 13.1465 35.9827C13.176 36.0052 13.2054 36.0351 13.2422 36.0575C13.2937 36.1024 13.3453 36.1398 13.4041 36.1772C13.4262 36.1996 13.4557 36.222 13.4851 36.237C13.5587 36.2968 13.6323 36.3491 13.7059 36.394L13.728 36.4165C13.8163 36.4688 13.8973 36.5286 13.9856 36.581C14.0077 36.5959 14.0298 36.6109 14.0519 36.6258C14.1181 36.6632 14.177 36.7081 14.2359 36.7455C14.2727 36.7604 14.3022 36.7829 14.3316 36.7978C14.3905 36.8352 14.442 36.8651 14.5009 36.895C14.5377 36.9175 14.5745 36.9324 14.604 36.9548C14.6555 36.9848 14.7144 37.0147 14.7659 37.0446C14.8027 37.0595 14.8395 37.082 14.8763 37.1044C14.9278 37.1268 14.9794 37.1567 15.0309 37.1792C15.0677 37.2016 15.1119 37.224 15.1487 37.239C15.2002 37.2614 15.2517 37.2913 15.3032 37.3138C15.3474 37.3362 15.3842 37.3512 15.4284 37.3736C15.4799 37.396 15.5314 37.4185 15.5756 37.4409C15.6198 37.4558 15.6639 37.4708 15.7081 37.4932C15.7523 37.5157 15.8038 37.5381 15.8553 37.5531C15.8995 37.5755 15.9436 37.5905 15.9878 37.6054C16.0393 37.6278 16.0909 37.6503 16.1424 37.6652C16.1865 37.6802 16.2307 37.6951 16.2675 37.7176C16.319 37.7325 16.3706 37.7475 16.4221 37.7699C16.4663 37.7849 16.5104 37.7998 16.5546 37.8148C16.6135 37.8297 16.665 37.8447 16.7165 37.8671C16.7607 37.8746 16.8049 37.8896 16.849 37.9045C16.9006 37.9195 16.9521 37.9344 17.0036 37.9494C17.0478 37.9643 17.0919 37.9793 17.1435 37.9868C17.195 38.0017 17.2465 38.0167 17.298 38.0316C17.3422 38.0466 17.3937 38.0541 17.4379 38.069C17.4894 38.0765 17.5409 38.0915 17.5998 38.1064C17.644 38.1064 17.6882 38.1214 17.7323 38.1363C17.7912 38.1438 17.8427 38.1588 17.8943 38.1662C17.9384 38.1812 17.99 38.1887 18.0341 38.1961C18.0857 38.2036 18.1445 38.2186 18.1961 38.2261C18.2476 38.2335 18.2918 38.241 18.3359 38.2485C18.3948 38.2485 18.4463 38.2634 18.5052 38.2709L18.6377 38.2934C18.6966 38.2934 18.7555 38.3083 18.807 38.3158C18.8585 38.3233 18.9027 38.3233 18.9469 38.3307C19.0058 38.3382 19.0646 38.3457 19.1235 38.3457C19.1677 38.3532 19.2119 38.3532 19.256 38.3607C19.3149 38.3607 19.3738 38.3681 19.4401 38.3756C19.4769 38.3756 19.521 38.3756 19.5652 38.3831C19.6314 38.3831 19.705 38.3831 19.7713 38.3906H19.8743C19.9774 38.398 20.0804 38.398 20.1835 38.398C20.7135 38.398 21.2435 38.3607 21.7661 38.2859C24.0111 37.9793 26.1164 37.0147 27.8094 35.4967C27.9639 35.3546 27.9787 35.1228 27.8462 34.9658C25.6968 32.371 22.5022 30.8829 19.0941 30.8829C18.9174 30.8829 18.7481 30.8904 18.5788 30.8979C18.5199 30.8979 18.4611 30.9054 18.4022 30.9054C18.2918 30.9129 18.174 30.9203 18.0636 30.9353C17.9973 30.9353 17.9311 30.9502 17.8575 30.9577C17.7618 30.9577 17.6587 30.9727 17.5557 30.9876C17.4821 31.0026 17.4085 31.0101 17.3422 31.025C17.2465 31.04 17.1435 31.0549 17.0478 31.0699C16.9742 31.0848 16.9006 31.0998 16.8269 31.1148C16.7386 31.1297 16.6429 31.1521 16.5546 31.1671C16.481 31.1895 16.4074 31.2045 16.3338 31.2194C16.2381 31.2419 16.1497 31.2643 16.0614 31.2942C15.9878 31.3092 15.9142 31.3316 15.8406 31.354C15.7523 31.3839 15.6639 31.4064 15.5756 31.4363C15.502 31.4587 15.4284 31.4886 15.3548 31.5111C15.2664 31.541 15.1781 31.5709 15.0971 31.6008C15.0235 31.6307 14.9499 31.6531 14.8763 31.6831C14.7953 31.7204 14.707 31.7504 14.626 31.7877C14.5524 31.8177 14.4862 31.8476 14.4126 31.8775C14.3316 31.9149 14.2433 31.9597 14.1623 31.9971C14.0961 32.027 14.0225 32.0644 13.9562 32.0943C13.8752 32.1392 13.7943 32.1841 13.7133 32.2215C13.6397 32.2588 13.5734 32.2962 13.5072 32.3336C13.4262 32.3785 13.3453 32.4234 13.2716 32.4757C13.2054 32.5131 13.1391 32.5505 13.0729 32.5879C12.9919 32.6402 12.911 32.6926 12.8374 32.7449C12.7711 32.7823 12.7049 32.8271 12.646 32.8645C12.565 32.9169 12.4914 32.9767 12.4104 33.029C12.3515 33.0739 12.2926 33.1188 12.2338 33.1636C12.1528 33.2235 12.0792 33.2833 12.0056 33.3431C11.9467 33.388 11.8878 33.4328 11.8289 33.4777C11.8289 33.4852 11.8068 33.5001 11.7921 33.5076C11.2916 32.8645 10.8794 32.1616 10.5555 31.4213C10.7101 31.3914 10.8646 31.354 11.0192 31.3167C11.0707 31.3017 11.1149 31.2867 11.1664 31.2793C11.2695 31.2494 11.3725 31.2194 11.483 31.1895C11.5418 31.1746 11.5934 31.1521 11.6523 31.1372C11.7479 31.1073 11.8436 31.0774 11.932 31.0475C11.9982 31.025 12.0571 31.0026 12.116 30.9802C12.2043 30.9502 12.2926 30.9129 12.381 30.8829C12.4399 30.8605 12.5061 30.8306 12.565 30.8082C12.6533 30.7708 12.7343 30.7334 12.8153 30.7035C12.8815 30.6736 12.9404 30.6437 13.0067 30.6137C13.0876 30.5764 13.1686 30.539 13.2496 30.5016C13.3084 30.4717 13.3747 30.4343 13.4336 30.4044C13.5146 30.367 13.5882 30.3221 13.6691 30.2847C13.728 30.2473 13.7943 30.2174 13.8532 30.18C13.9268 30.1352 14.0077 30.0903 14.0813 30.0454C14.1402 30.0155 14.1991 29.9781 14.258 29.9408C14.3316 29.8959 14.4052 29.8435 14.4788 29.7987C14.5377 29.7613 14.5966 29.7164 14.6555 29.679C14.7291 29.6342 14.8027 29.5818 14.8763 29.5295C14.9278 29.4846 14.9867 29.4472 15.0456 29.4024C15.1119 29.35 15.1855 29.2977 15.2591 29.2453C15.3106 29.2005 15.3621 29.1556 15.4137 29.1182C15.4873 29.0584 15.5609 28.9986 15.6271 28.9387C15.6786 28.8939 15.7302 28.849 15.7817 28.8116C15.8479 28.7443 15.9216 28.677 15.9878 28.6097C16.0393 28.5723 16.0835 28.5275 16.1277 28.4901C16.2013 28.4153 16.2749 28.3405 16.3485 28.2583C16.3853 28.2209 16.4295 28.191 16.4589 28.1461C16.5693 28.0339 16.6797 27.9143 16.7828 27.8021C18.5273 25.8056 19.4916 23.2557 19.4916 20.631C19.4916 19.285 19.2413 17.9689 18.7628 16.7202C18.6966 16.5482 18.5126 16.4435 18.3286 16.4734C15.7228 16.8996 13.3379 18.2157 11.6081 20.1898C9.86356 22.1864 8.90665 24.7363 8.90665 27.3609C8.90665 27.518 8.90665 27.6825 8.91401 27.8395C8.92137 27.8844 8.92137 27.9367 8.92873 27.9891C8.92873 28.0938 8.93609 28.2059 8.95081 28.3106C8.95081 28.3704 8.95818 28.4303 8.96554 28.4901C8.9729 28.5873 8.98762 28.6845 9.00234 28.7817C9.0097 28.8415 9.01706 28.9088 9.02442 28.9687C9.03915 29.0659 9.05387 29.1556 9.06859 29.2528C9.08331 29.3126 9.09067 29.3724 9.10539 29.4323C9.12748 29.5295 9.1422 29.6267 9.16428 29.7239C9.179 29.7837 9.19372 29.8361 9.20845 29.8959C9.23053 30.0006 9.25997 30.0978 9.28205 30.2025C9.29677 30.2473 9.3115 30.2997 9.32622 30.352C9.36302 30.4791 9.39983 30.6063 9.44399 30.7259C9.44399 30.7558 9.45871 30.7783 9.46607 30.8007V30.8156C8.64166 30.9129 7.77308 30.9129 6.94866 30.8156V30.8007C6.94866 30.8007 6.97074 30.7558 6.9781 30.7259C7.01491 30.6063 7.05171 30.4791 7.08852 30.352C7.10324 30.2997 7.11796 30.2473 7.13268 30.195C7.16212 30.0978 7.18421 30.0006 7.21365 29.8959C7.22837 29.8361 7.23573 29.7762 7.25045 29.7164C7.27254 29.6267 7.29462 29.5295 7.30934 29.4397C7.32406 29.3724 7.33142 29.3126 7.34615 29.2528C7.36087 29.1556 7.37559 29.0659 7.39031 28.9687C7.39031 28.9088 7.41239 28.8415 7.41975 28.7817C7.41975 28.6845 7.44184 28.5873 7.4492 28.4901C7.45656 28.4303 7.46392 28.3704 7.47128 28.3106C7.47864 28.2059 7.486 28.0938 7.49336 27.9891C7.49336 27.9367 7.50072 27.8919 7.50072 27.8395C7.50808 27.6825 7.50808 27.518 7.50808 27.3609C7.50808 24.7363 6.55117 22.1864 4.80665 20.1898C3.90862 19.1654 2.83393 18.3204 1.64147 17.6848C4.41652 7.91142 13.2937 0.747771 23.7903 0.747771C30.6286 0.747771 36.7823 3.7912 41.0074 8.60684C39.9621 8.03854 38.7697 7.86655 37.9453 7.81421C37.2902 7.77682 36.6424 7.81421 36.0682 7.89646C35.4499 7.55997 34.7286 7.29825 34.228 7.14121C32.8516 6.71498 31.3867 6.50561 29.8998 6.53552C28.8104 6.55047 27.8903 6.72994 27.1616 7.07391C26.5212 7.3805 26.0648 7.79177 25.7925 8.30774C25.5201 8.83118 25.4612 9.44435 25.6305 10.0874C25.7778 10.6557 26.1016 11.254 26.5875 11.8596C27.3824 12.8392 28.2142 13.6169 29.0607 14.1777C29.3699 14.3796 29.8189 14.6488 30.2826 14.8133C30.4004 15.5686 30.6654 16.4136 31.0408 17.2137C31.7842 18.7915 32.8884 20.0777 34.3237 21.0273C34.4121 21.0797 34.5151 21.1021 34.6182 21.0797C34.7212 21.0572 34.8095 20.9974 34.8684 20.9077C34.92 20.8179 34.942 20.7058 34.92 20.6086C34.6991 19.5168 34.5887 18.111 34.8979 17.2586C35.8621 18.1783 36.6866 19.457 37.1282 20.7282C38.0704 23.3903 37.5625 26.2094 35.634 29.0958C35.5162 29.2827 35.5604 29.5295 35.7444 29.6566C35.8327 29.7164 35.9358 29.7389 36.0388 29.7164C36.1419 29.694 36.2302 29.6342 36.2891 29.5444C38.4237 26.3514 38.9243 23.0986 37.7539 20.1375C37.3711 19.1728 36.8264 18.268 36.1345 17.4305C35.7591 16.9819 35.3984 16.6155 35.0524 16.3313L35.0083 16.2939C34.6329 16.0173 34.206 15.763 33.8379 15.5536C33.2343 15.2097 32.6086 14.8806 31.9682 14.5741C31.8726 14.5292 31.7695 14.5292 31.6665 14.5591C31.5708 14.5965 31.4898 14.6713 31.4456 14.7685C31.4015 14.8657 31.3941 14.9779 31.4309 15.0751C31.4677 15.1723 31.5413 15.2545 31.637 15.2994C32.2406 15.5835 32.8442 15.9051 33.4404 16.2416C33.6907 16.3837 33.9851 16.5557 34.2648 16.7426C33.8526 17.6175 33.8894 18.8887 33.9925 19.786C32.962 18.9261 32.167 17.8493 31.6223 16.5781C31.3131 15.8453 31.0923 15.0601 31.0261 14.4843C31.0187 14.3049 30.8936 14.1478 30.7169 14.1104C30.3709 14.0357 29.8998 13.7665 29.7158 13.6543C28.8693 13.1458 28.0228 12.3681 27.1984 11.3512C26.7788 10.8352 26.5138 10.3417 26.3887 9.88553C26.2783 9.43687 26.3077 9.0256 26.4918 8.68162C26.6758 8.32269 27.0144 8.03106 27.4928 7.79925C28.1185 7.50762 28.9356 7.35059 29.9146 7.32816C32.0639 7.29077 34.2133 7.7843 35.7959 8.65919C35.8769 8.71153 35.9726 8.72649 36.0682 8.71153C36.613 8.60684 37.246 8.57693 37.9011 8.61432C38.6519 8.65919 39.734 8.81622 40.6467 9.31723C41.4564 9.76589 41.9496 10.3791 42.1262 11.1567C41.6625 10.8651 41.0884 10.6782 40.4259 10.6034C39.9695 10.5436 39.4911 10.5436 39.123 10.6034C39.042 10.6034 38.9684 10.6408 38.9095 10.6931C38.7476 10.8427 38.7255 11.0969 38.8654 11.2614C40.7718 13.4973 41.8613 16.2715 42.0232 19.285C42.1262 21.2517 41.8318 23.2482 41.162 25.0429C40.7056 26.2692 39.8517 27.9965 38.3722 29.2977C37.3785 30.1651 36.2596 30.6885 35.1187 30.8082C34.1618 28.9836 31.9167 27.6526 30.1796 26.845C29.7821 26.6655 29.3625 26.486 28.9356 26.3215C28.0081 25.9626 24.7914 24.7961 22.1415 24.9382C21.9427 24.9382 21.7955 25.0653 21.7514 25.2447C21.7293 25.3494 21.7514 25.4541 21.8029 25.5439C21.8544 25.6336 21.9427 25.7009 22.0458 25.7233C23.7388 26.1346 24.6221 27.7722 25.4024 29.2154L25.498 29.3949C26.0869 30.4791 26.7494 31.7055 27.7505 32.4981C28.516 33.1113 29.4067 33.3955 30.4593 33.388C29.2594 34.4722 28.8178 35.8781 28.3761 37.5605C27.9198 39.3253 27.5296 40.8433 25.498 41.3443C25.4097 41.3667 25.3287 41.4265 25.2699 41.5013C25.211 41.591 25.1889 41.6957 25.2036 41.8004C25.2257 41.9051 25.2772 42.0023 25.3655 42.0621C26.1826 42.6529 27.0733 42.9445 28.0081 42.9445C28.2584 42.9445 28.5086 42.9295 28.7589 42.8847C29.7453 42.7276 30.7463 42.2565 31.7327 41.5013C32.6234 40.8133 33.4404 39.9384 34.1618 38.899C35.3174 37.239 36.4437 34.7564 36.1345 32.7673C36.0977 32.5505 35.8989 32.4009 35.6855 32.4383C35.5751 32.4533 35.4867 32.5131 35.4279 32.5953C35.3616 32.6851 35.3395 32.7898 35.3542 32.8944C35.6266 34.6517 34.5372 36.9773 33.5214 38.4354C32.8442 39.4075 32.0787 40.2226 31.2542 40.8582C30.3783 41.5387 29.495 41.9574 28.6338 42.092C27.905 42.2117 27.2058 42.1219 26.5433 41.8303C28.2952 41.0302 28.7221 39.3701 29.1417 37.7624C29.3699 36.8875 29.6054 35.9753 30.0618 35.1677C30.5697 34.2629 31.2984 33.6048 32.2921 33.1412C32.513 33.0365 32.7411 32.9617 32.984 32.8795C33.1533 32.8271 33.33 32.7673 33.4846 32.7075C33.6833 32.6402 33.8011 32.4308 33.7422 32.2215C33.6833 32.0121 33.4699 31.8775 33.2564 31.9373C33.0429 31.9971 32.8295 32.0794 32.6234 32.1542C32.3952 32.2364 32.1744 32.3187 31.9462 32.371C30.3709 32.7748 29.1932 32.6028 28.2216 31.8401C27.3456 31.1447 26.7347 30.023 26.1973 29.0285L26.109 28.864C25.5348 27.8021 24.9018 26.6281 23.9449 25.8205C25.8734 26.0673 27.7063 26.6954 28.6853 27.0768C29.0828 27.2338 29.4803 27.3983 29.8557 27.5778C31.2542 28.2209 33.7128 29.5743 34.5298 31.3989C34.5961 31.5559 34.758 31.6457 34.92 31.6307C36.3185 31.5485 37.6876 30.9502 38.8875 29.9034C40.1535 28.7817 41.1988 27.2039 41.8981 25.327C42.6047 23.4277 42.9212 21.319 42.8108 19.2401C42.6562 16.3313 41.6772 13.6244 39.9695 11.3736C40.6393 11.4035 41.6846 11.5755 42.2808 12.3457C42.4207 12.5177 42.6636 12.5476 42.8329 12.4055C42.9286 12.3307 42.9801 12.2186 42.9875 12.1064C43.0022 11.7774 42.9875 11.4559 42.9286 11.1493C42.9286 11.1418 42.9286 11.1268 42.9286 11.1194C45.4092 14.8507 46.8593 19.3448 46.8593 24.1754C46.8593 37.0894 36.5099 47.5956 23.7977 47.5956L23.7903 47.5881ZM12.2926 34.1133C14.1844 32.528 16.584 31.6606 19.0941 31.6606C22.1341 31.6606 24.9901 32.9393 26.9849 35.1677C25.0932 36.7529 22.6936 37.6204 20.1835 37.6204C17.1435 37.6204 14.2874 36.3491 12.2926 34.1133ZM22.6347 9.33966C22.6347 9.0929 22.4801 8.891 22.2519 8.84613C19.8523 8.37504 18.9174 7.17112 18.5347 4.06787C18.5052 3.80615 18.3138 3.62669 18.0709 3.62669C17.828 3.62669 17.6366 3.80615 17.5998 4.06787C17.2244 7.17112 16.2896 8.37504 13.89 8.84613C13.6691 8.891 13.5072 9.0929 13.5072 9.34714C13.5072 9.60138 13.6691 9.7958 13.89 9.84067C16.3264 10.3192 17.3201 11.5755 17.6882 14.6414C17.7397 15.0526 18.0341 15.0751 18.093 15.0751C18.1519 15.0751 18.4463 15.0526 18.4979 14.6264C18.8659 11.5605 19.8523 10.3118 22.2519 9.84067C22.4801 9.7958 22.6347 9.58642 22.6347 9.33966ZM18.093 13.1982C17.5851 10.9997 16.5399 9.8631 14.5377 9.34714C16.584 8.80874 17.5925 7.62726 18.0709 5.21944C18.5494 7.62726 19.5652 8.80874 21.6041 9.33966C19.6241 9.8631 18.5935 10.9922 18.093 13.1982ZM22.2519 8.84613C19.8523 8.37504 18.9174 7.17112 18.5347 4.06787C18.5052 3.80615 18.3138 3.62669 18.0709 3.62669C17.828 3.62669 17.6366 3.80615 17.5998 4.06787C17.2244 7.17112 16.2896 8.37504 13.89 8.84613C13.6691 8.891 13.5072 9.0929 13.5072 9.34714C13.5072 9.60138 13.6691 9.7958 13.89 9.84067C16.3264 10.3192 17.3201 11.5755 17.6882 14.6414C17.7397 15.0526 18.0341 15.0751 18.093 15.0751C18.1519 15.0751 18.4463 15.0526 18.4979 14.6264C18.8659 11.5605 19.8523 10.3118 22.2519 9.84067C22.4801 9.7958 22.6347 9.58642 22.6347 9.33966C22.6347 9.0929 22.4801 8.891 22.2519 8.84613ZM18.093 13.1982C17.5851 10.9997 16.5399 9.8631 14.5377 9.34714C16.584 8.80874 17.5925 7.62726 18.0709 5.21944C18.5494 7.62726 19.5652 8.80874 21.6041 9.33966C19.6241 9.8631 18.5935 10.9922 18.093 13.1982ZM22.2519 8.84613C19.8523 8.37504 18.9174 7.17112 18.5347 4.06787C18.5052 3.80615 18.3138 3.62669 18.0709 3.62669C17.828 3.62669 17.6366 3.80615 17.5998 4.06787C17.2244 7.17112 16.2896 8.37504 13.89 8.84613C13.6691 8.891 13.5072 9.0929 13.5072 9.34714C13.5072 9.60138 13.6691 9.7958 13.89 9.84067C16.3264 10.3192 17.3201 11.5755 17.6882 14.6414C17.7397 15.0526 18.0341 15.0751 18.093 15.0751C18.1519 15.0751 18.4463 15.0526 18.4979 14.6264C18.8659 11.5605 19.8523 10.3118 22.2519 9.84067C22.4801 9.7958 22.6347 9.58642 22.6347 9.33966C22.6347 9.0929 22.4801 8.891 22.2519 8.84613ZM18.093 13.1982C17.5851 10.9997 16.5399 9.8631 14.5377 9.34714C16.584 8.80874 17.5925 7.62726 18.0709 5.21944C18.5494 7.62726 19.5652 8.80874 21.6041 9.33966C19.6241 9.8631 18.5935 10.9922 18.093 13.1982ZM22.2519 8.84613C19.8523 8.37504 18.9174 7.17112 18.5347 4.06787C18.5052 3.80615 18.3138 3.62669 18.0709 3.62669C17.828 3.62669 17.6366 3.80615 17.5998 4.06787C17.2244 7.17112 16.2896 8.37504 13.89 8.84613C13.6691 8.891 13.5072 9.0929 13.5072 9.34714C13.5072 9.60138 13.6691 9.7958 13.89 9.84067C16.3264 10.3192 17.3201 11.5755 17.6882 14.6414C17.7397 15.0526 18.0341 15.0751 18.093 15.0751C18.1519 15.0751 18.4463 15.0526 18.4979 14.6264C18.8659 11.5605 19.8523 10.3118 22.2519 9.84067C22.4801 9.7958 22.6347 9.58642 22.6347 9.33966C22.6347 9.0929 22.4801 8.891 22.2519 8.84613ZM18.093 13.1982C17.5851 10.9997 16.5399 9.8631 14.5377 9.34714C16.584 8.80874 17.5925 7.62726 18.0709 5.21944C18.5494 7.62726 19.5652 8.80874 21.6041 9.33966C19.6241 9.8631 18.5935 10.9922 18.093 13.1982ZM22.2519 8.84613C19.8523 8.37504 18.9174 7.17112 18.5347 4.06787C18.5052 3.80615 18.3138 3.62669 18.0709 3.62669C17.828 3.62669 17.6366 3.80615 17.5998 4.06787C17.2244 7.17112 16.2896 8.37504 13.89 8.84613C13.6691 8.891 13.5072 9.0929 13.5072 9.34714C13.5072 9.60138 13.6691 9.7958 13.89 9.84067C16.3264 10.3192 17.3201 11.5755 17.6882 14.6414C17.7397 15.0526 18.0341 15.0751 18.093 15.0751C18.1519 15.0751 18.4463 15.0526 18.4979 14.6264C18.8659 11.5605 19.8523 10.3118 22.2519 9.84067C22.4801 9.7958 22.6347 9.58642 22.6347 9.33966C22.6347 9.0929 22.4801 8.891 22.2519 8.84613ZM18.093 13.1982C17.5851 10.9997 16.5399 9.8631 14.5377 9.34714C16.584 8.80874 17.5925 7.62726 18.0709 5.21944C18.5494 7.62726 19.5652 8.80874 21.6041 9.33966C19.6241 9.8631 18.5935 10.9922 18.093 13.1982ZM22.2519 8.84613C19.8523 8.37504 18.9174 7.17112 18.5347 4.06787C18.5052 3.80615 18.3138 3.62669 18.0709 3.62669C17.828 3.62669 17.6366 3.80615 17.5998 4.06787C17.2244 7.17112 16.2896 8.37504 13.89 8.84613C13.6691 8.891 13.5072 9.0929 13.5072 9.34714C13.5072 9.60138 13.6691 9.7958 13.89 9.84067C16.3264 10.3192 17.3201 11.5755 17.6882 14.6414C17.7397 15.0526 18.0341 15.0751 18.093 15.0751C18.1519 15.0751 18.4463 15.0526 18.4979 14.6264C18.8659 11.5605 19.8523 10.3118 22.2519 9.84067C22.4801 9.7958 22.6347 9.58642 22.6347 9.33966C22.6347 9.0929 22.4801 8.891 22.2519 8.84613ZM18.093 13.1982C17.5851 10.9997 16.5399 9.8631 14.5377 9.34714C16.584 8.80874 17.5925 7.62726 18.0709 5.21944C18.5494 7.62726 19.5652 8.80874 21.6041 9.33966C19.6241 9.8631 18.5935 10.9922 18.093 13.1982ZM22.2519 8.84613C19.8523 8.37504 18.9174 7.17112 18.5347 4.06787C18.5052 3.80615 18.3138 3.62669 18.0709 3.62669C17.828 3.62669 17.6366 3.80615 17.5998 4.06787C17.2244 7.17112 16.2896 8.37504 13.89 8.84613C13.6691 8.891 13.5072 9.0929 13.5072 9.34714C13.5072 9.60138 13.6691 9.7958 13.89 9.84067C16.3264 10.3192 17.3201 11.5755 17.6882 14.6414C17.7397 15.0526 18.0341 15.0751 18.093 15.0751C18.1519 15.0751 18.4463 15.0526 18.4979 14.6264C18.8659 11.5605 19.8523 10.3118 22.2519 9.84067C22.4801 9.7958 22.6347 9.58642 22.6347 9.33966C22.6347 9.0929 22.4801 8.891 22.2519 8.84613ZM18.093 13.1982C17.5851 10.9997 16.5399 9.8631 14.5377 9.34714C16.584 8.80874 17.5925 7.62726 18.0709 5.21944C18.5494 7.62726 19.5652 8.80874 21.6041 9.33966C19.6241 9.8631 18.5935 10.9922 18.093 13.1982ZM22.2519 8.84613C19.8523 8.37504 18.9174 7.17112 18.5347 4.06787C18.5052 3.80615 18.3138 3.62669 18.0709 3.62669C17.828 3.62669 17.6366 3.80615 17.5998 4.06787C17.2244 7.17112 16.2896 8.37504 13.89 8.84613C13.6691 8.891 13.5072 9.0929 13.5072 9.34714C13.5072 9.60138 13.6691 9.7958 13.89 9.84067C16.3264 10.3192 17.3201 11.5755 17.6882 14.6414C17.7397 15.0526 18.0341 15.0751 18.093 15.0751C18.1519 15.0751 18.4463 15.0526 18.4979 14.6264C18.8659 11.5605 19.8523 10.3118 22.2519 9.84067C22.4801 9.7958 22.6347 9.58642 22.6347 9.33966C22.6347 9.0929 22.4801 8.891 22.2519 8.84613ZM18.093 13.1982C17.5851 10.9997 16.5399 9.8631 14.5377 9.34714C16.584 8.80874 17.5925 7.62726 18.0709 5.21944C18.5494 7.62726 19.5652 8.80874 21.6041 9.33966C19.6241 9.8631 18.5935 10.9922 18.093 13.1982ZM22.2519 8.84613C19.8523 8.37504 18.9174 7.17112 18.5347 4.06787C18.5052 3.80615 18.3138 3.62669 18.0709 3.62669C17.828 3.62669 17.6366 3.80615 17.5998 4.06787C17.2244 7.17112 16.2896 8.37504 13.89 8.84613C13.6691 8.891 13.5072 9.0929 13.5072 9.34714C13.5072 9.60138 13.6691 9.7958 13.89 9.84067C16.3264 10.3192 17.3201 11.5755 17.6882 14.6414C17.7397 15.0526 18.0341 15.0751 18.093 15.0751C18.1519 15.0751 18.4463 15.0526 18.4979 14.6264C18.8659 11.5605 19.8523 10.3118 22.2519 9.84067C22.4801 9.7958 22.6347 9.58642 22.6347 9.33966C22.6347 9.0929 22.4801 8.891 22.2519 8.84613ZM18.093 13.1982C17.5851 10.9997 16.5399 9.8631 14.5377 9.34714C16.584 8.80874 17.5925 7.62726 18.0709 5.21944C18.5494 7.62726 19.5652 8.80874 21.6041 9.33966C19.6241 9.8631 18.5935 10.9922 18.093 13.1982Z" fill="#DAC7B4"/>
</g>
<defs>
<clipPath id="clip0_2_845">
<rect width="247" height="52" fill="white"/>
</clipPath>
</defs>
</svg>
