<svg width="614" height="614" viewBox="0 0 614 614" fill="none" xmlns="http://www.w3.org/2000/svg">
<path d="M307 0C137.735 0 0 137.735 0 307C0 476.265 137.735 614 307 614C476.265 614 614 476.265 614 307C614 137.735 476.265 0 307 0ZM345.004 445.575C321.381 464.355 291.581 474.684 260.792 474.684C223.282 474.684 187.65 459.413 162.544 432.676C186.167 413.897 215.967 403.568 246.756 403.568C284.217 403.568 319.899 418.839 345.004 445.575ZM233.116 222.689C237.465 235.39 239.64 248.733 239.64 262.324C239.64 322.419 195.705 374.558 134.918 386.913C130.569 374.212 128.394 360.868 128.394 347.278C128.394 287.182 172.329 235.044 233.116 222.689ZM86.1399 347.278C86.1399 349.057 86.1398 350.836 86.0409 352.566C85.5467 364.279 83.3723 375.843 79.6163 386.913C56.4875 382.218 35.1378 371.642 17.7418 356.273C14.9248 339.816 13.4917 323.21 13.4917 306.951C13.4917 283.723 16.2592 260.495 21.7448 237.91C52.8797 255.751 75.1684 285.304 82.9769 319.355C85.0525 328.448 86.1399 337.838 86.1399 347.278ZM88.759 402.481C100.916 403.963 113.667 403.963 125.775 402.481C130.322 412.809 136.153 422.545 143.072 431.54C123.601 453.829 112.234 499.74 107.588 522.127L106.748 521.337C102.547 501.173 91.082 454.076 71.4127 431.54C78.3809 422.545 84.1631 412.76 88.7098 402.481H88.759ZM152.363 442.363L154.39 444.488L170.501 458.622C171.193 459.166 171.934 459.66 172.873 460.401L173.614 460.945C174.603 461.637 175.541 462.329 176.826 463.169C177.914 463.91 179.001 464.602 180.088 465.294L183.449 467.37L198.868 475.376C199.56 475.672 200.202 475.969 200.845 476.265L223.183 483.876L240.579 487.187C241.32 487.286 242.062 487.385 242.803 487.484L252.588 488.324C253.478 488.324 254.367 488.374 255.702 488.423H256.591C264.745 488.67 272.999 488.225 281.104 487.138C310.558 483.184 337.739 470.829 359.682 451.407C362.499 448.936 362.796 444.735 360.374 441.869C332.353 408.707 290.889 389.681 246.608 389.681C244.384 389.681 242.111 389.68 239.936 389.829C239.442 389.829 238.899 389.878 238.404 389.928H237.712C236.23 390.076 234.747 390.126 233.265 390.274C232.672 390.323 232.029 390.422 231.436 390.471L230.003 390.62C228.866 390.718 227.73 390.866 226.642 391.015L222.738 391.608C221.849 391.756 220.959 391.905 220.069 392.053C219.328 392.201 218.537 392.349 217.796 392.498L216.363 392.794C215.424 392.991 214.485 393.19 213.546 393.387L210.68 394.079C209.493 394.375 208.307 394.672 207.171 394.969C206.182 395.216 205.243 395.512 204.304 395.759C203.167 396.105 201.982 396.402 200.845 396.797C199.906 397.094 198.917 397.39 197.978 397.736C196.842 398.131 195.755 398.478 194.618 398.922C193.679 399.268 192.74 399.614 191.801 400.01C190.714 400.454 189.577 400.85 188.49 401.295C187.551 401.69 186.661 402.085 185.722 402.481C184.635 402.975 183.548 403.469 182.51 403.963C181.62 404.408 180.681 404.803 179.792 405.248C178.704 405.791 177.667 406.335 176.579 406.879L173.96 408.312C172.922 408.905 171.884 409.498 170.847 410.091L168.277 411.623C167.239 412.266 166.25 412.908 165.213 413.551L164.57 413.995C163.977 414.391 163.384 414.786 162.791 415.181C161.753 415.873 160.765 416.565 159.776 417.257L159.332 417.553C158.689 417.998 158.047 418.493 157.404 418.937C156.366 419.679 155.378 420.469 154.439 421.211L153.846 421.656C153.846 421.656 153.5 421.952 153.302 422.051C148.113 415.132 143.616 407.769 140.008 400.059C141.194 399.812 142.38 399.515 143.566 399.219L145.444 398.725C146.828 398.379 148.212 397.983 149.546 397.588L151.82 396.896C153.006 396.501 154.241 396.155 155.427 395.759L158.442 394.672C159.381 394.326 160.32 393.98 161.259 393.634L163.681 392.646C164.768 392.201 165.855 391.756 166.942 391.312L169.413 390.224C170.451 389.73 171.538 389.285 172.527 388.791C173.367 388.396 174.158 388 174.948 387.605C175.986 387.111 176.975 386.567 177.963 386.023C178.754 385.578 179.545 385.184 180.385 384.739C181.373 384.195 182.361 383.602 183.35 383.058C184.141 382.613 184.931 382.119 185.722 381.674C186.71 381.081 187.649 380.488 188.588 379.846L190.862 378.363C191.801 377.721 192.74 377.078 193.679 376.386L195.853 374.805C196.792 374.113 197.731 373.421 198.621 372.729L199.115 372.334C199.659 371.939 200.202 371.494 200.697 371.099C201.635 370.357 202.525 369.616 203.464 368.825L205.441 367.194C206.232 366.502 207.022 365.761 208.209 364.674L209.988 363.043C210.729 362.351 211.47 361.61 212.212 360.868L214.337 358.694C215.77 357.211 217.153 355.729 218.537 354.197C241.221 328.646 253.725 296.029 253.725 262.373C253.725 245.126 250.562 228.323 244.285 212.36C243.05 209.296 239.788 207.517 236.477 208.011C202.624 213.447 171.637 230.299 149.2 255.553C126.516 281.104 114.013 313.721 114.013 347.377C114.013 349.403 114.062 351.429 114.161 353.455L114.26 355.482C114.359 356.816 114.458 358.2 114.557 359.534C114.606 360.275 114.705 360.967 114.804 361.808C114.952 363.043 115.051 364.328 115.249 365.564L115.595 367.985C115.792 369.171 115.99 370.407 116.188 371.642L116.632 374.014C116.879 375.25 117.127 376.436 117.423 377.721L117.917 379.945C118.214 381.229 118.56 382.564 118.955 383.799L119.499 385.776C119.845 386.913 120.19 388 120.586 389.236C111.74 390.076 102.547 390.076 93.701 389.236C94.0964 388.099 94.4425 386.913 94.7884 385.776L95.332 383.75C95.6779 382.465 96.0239 381.229 96.3205 379.945C96.5182 379.154 96.7158 378.363 96.864 377.622C97.1111 376.436 97.4078 375.2 97.6549 374.014L98.0995 371.642C98.2972 370.456 98.4949 369.27 98.6926 368.035C98.7914 367.244 98.9397 366.403 99.0385 365.612C99.2362 364.377 99.3352 363.142 99.4835 361.857L99.7305 359.583C99.8788 358.2 99.9282 356.865 100.027 355.432C100.027 354.79 100.126 354.147 100.126 353.505C100.225 351.478 100.274 349.452 100.274 347.426C100.274 313.771 87.7707 281.153 65.0867 255.603C53.8682 243 40.5743 232.474 25.4022 224.27C62.0228 100.175 177.518 13.5906 306.901 13.5906C387.111 13.5906 463.959 46.7517 519.36 104.87C508.24 100.719 496.873 99.2363 488.472 98.7421C480.219 98.2479 471.966 98.5939 464.602 99.7305C456.695 95.4804 447.601 92.3173 441.275 90.3405C423.385 84.8549 404.408 82.2849 385.134 82.532C370.901 82.7791 358.793 85.1515 349.254 89.5499C340.606 93.553 334.379 99.0879 330.771 106.007C327.015 113.074 326.224 121.327 328.498 129.877C330.475 137.438 334.725 145.197 341.199 153.006C351.528 165.559 362.351 175.541 373.372 182.707C377.078 185.08 382.564 188.341 388.247 190.516C389.928 199.906 393.337 210.383 397.983 220.168C407.669 240.48 422.051 256.937 440.732 269.094C442.313 270.132 444.191 270.478 446.069 270.083C447.898 269.688 449.479 268.6 450.566 267.019C451.604 265.437 451.95 263.51 451.555 261.731C449.084 249.919 447.601 234.302 450.27 223.726C461.291 234.895 470.779 249.87 475.969 264.4C487.78 297.363 481.405 332.303 457.04 368.232C454.866 371.444 455.706 375.892 458.919 378.067C460.5 379.154 462.378 379.5 464.256 379.154C466.134 378.808 467.715 377.721 468.753 376.189C496.478 335.268 503.051 293.558 487.731 255.504C482.789 243.198 475.721 231.535 466.678 220.86C461.785 215.078 457.041 210.284 452.494 206.677L451.901 206.232C446.959 202.575 441.473 199.362 436.729 196.694C428.871 192.295 420.766 188.144 412.612 184.289C410.882 183.498 409.004 183.399 407.175 184.042C405.396 184.684 403.963 185.969 403.172 187.699C402.777 188.49 402.579 189.33 402.53 190.17C402.135 188.292 401.887 186.513 401.69 184.882C401.541 181.67 399.268 179.001 396.154 178.309C391.756 177.321 385.677 173.861 383.948 172.823C373.273 166.448 362.549 156.811 352.121 144.16C346.981 137.933 343.67 131.953 342.187 126.417C340.853 121.228 341.199 116.632 343.274 112.728C345.449 108.626 349.452 105.167 355.234 102.498C362.993 98.8904 373.125 96.9628 385.381 96.7651C412.661 96.4192 439.694 102.35 459.709 113.272C461.142 114.161 462.872 114.408 464.553 114.161C471.373 112.926 479.379 112.481 487.632 112.975C496.972 113.519 510.514 115.446 521.979 121.673C530.084 126.072 535.619 131.854 538.485 138.871C533.197 136.4 527.069 134.77 520.299 133.979C514.269 133.287 507.993 133.238 503.1 133.88C501.717 134.028 500.382 134.621 499.295 135.56C497.862 136.796 497.022 138.526 496.873 140.404C496.725 142.281 497.368 144.11 498.554 145.494C522.622 173.318 536.459 207.912 538.485 245.521C539.82 270.083 536.015 294.892 527.564 317.379C521.781 332.6 511.008 354.098 492.376 370.159C480.417 380.488 466.875 386.863 453.136 388.643C440.188 365.662 411.524 348.958 389.532 338.975C384.294 336.603 378.857 334.329 373.421 332.254C361.461 327.707 319.849 312.832 285.601 314.66C282.141 314.71 279.473 316.835 278.682 320.096C278.237 321.925 278.534 323.852 279.522 325.483C280.511 327.065 282.092 328.201 283.921 328.646C304.727 333.588 315.846 353.851 325.681 371.741L326.916 374.014C334.527 387.852 343.126 403.519 356.272 413.749C365.217 420.717 375.398 424.522 387.308 425.313C374.113 438.904 368.726 456.151 363.636 475.524C357.705 498.011 353.06 515.752 328.251 521.782C326.62 522.177 325.137 523.165 324.099 524.598C323.012 526.13 322.567 528.009 322.913 529.887C323.21 531.765 324.248 533.395 325.78 534.483C339.42 544.12 354.74 547.777 370.752 545.207C383.75 543.131 396.896 537.102 409.795 527.317C421.359 518.569 431.984 507.351 441.374 494.057C456.398 472.806 471.027 440.93 466.974 415.231C466.381 411.376 462.823 408.757 458.869 409.35C456.991 409.647 455.36 410.635 454.273 412.167C453.186 413.699 452.691 415.577 452.988 417.455C456.398 438.953 442.659 467.765 429.81 485.853C421.26 497.961 411.623 508.092 401.195 515.999C390.175 524.351 379.154 529.491 368.479 531.171C361.066 532.407 353.85 531.814 347.03 529.59C366.897 518.52 372.136 498.505 377.276 479.082C380.142 468.16 383.157 456.794 388.89 446.761C395.216 435.74 404.259 427.685 416.565 422.001C419.234 420.766 422.1 419.876 425.214 418.888C427.438 418.147 429.661 417.455 431.589 416.714C435.197 415.528 437.272 411.772 436.284 408.115C435.79 406.286 434.604 404.705 432.923 403.766C431.292 402.827 429.365 402.629 427.586 403.123C424.818 403.864 422.1 404.852 419.333 405.841C416.565 406.829 413.649 407.867 410.783 408.559C391.311 413.452 376.683 411.425 364.822 402.233C353.9 393.733 346.19 379.698 339.37 367.343L338.234 365.267C331.908 353.702 324.791 340.853 314.858 330.821C337.245 334.33 357.903 341.496 368.726 345.647C373.767 347.574 378.759 349.65 383.602 351.874C401.245 359.93 432.33 376.732 442.461 399.07C443.697 401.887 446.465 403.568 449.43 403.222C467.814 402.184 485.853 394.475 501.519 380.933C518.025 366.651 531.567 346.388 540.66 322.419C549.852 298.154 553.954 271.318 552.521 244.78C550.544 209.296 538.782 175.888 518.421 147.965C525.933 148.855 536.064 151.474 542.143 159.134C544.564 162.198 549.012 162.692 552.076 160.271C553.707 158.986 554.745 156.96 554.745 155.032C554.844 153.5 554.844 152.017 554.794 150.535C584.496 197.435 600.212 251.402 600.212 307.148C600.212 469 468.556 600.657 306.703 600.657C238.553 600.657 172.181 576.688 119.647 533.148C127.208 492.03 139.218 458.523 152.017 442.511L152.363 442.363ZM406.73 196.941C414.292 200.449 422.051 204.453 429.711 208.703C432.479 210.284 435.592 212.063 438.705 214.04C434.653 223.727 434.406 236.378 435.246 246.855C424.127 236.773 415.379 224.517 409.251 210.334C406.879 204.897 404.951 199.263 403.617 194.074C404.358 195.31 405.396 196.298 406.73 196.891V196.941ZM23.5242 378.215L25.7973 379.698C26.7363 380.291 27.7248 380.933 28.6638 381.477C29.4545 381.971 30.2452 382.415 31.0359 382.91C32.0243 383.503 32.9634 384.047 33.9518 384.59L36.3734 385.925C37.4112 386.468 38.3996 386.962 39.388 387.506C40.1787 387.901 41.0188 388.346 41.8095 388.692C42.8474 389.186 43.8853 389.681 45.269 390.274C46.0103 390.62 46.7022 390.916 47.3941 391.213C48.4813 391.707 49.5687 392.102 50.656 392.547L53.127 393.535C54.1648 393.931 55.1532 394.277 56.4876 394.771L58.9091 395.611C59.8481 395.908 60.7871 396.204 61.7261 396.5L64.7902 397.489C65.9268 397.835 67.0635 398.131 68.2002 398.428L70.7702 399.12C71.9068 399.416 73.0928 399.664 74.3283 399.96C70.6712 407.67 66.2233 415.083 61.0342 422.001L59.8976 421.112C58.9092 420.371 57.9701 419.58 56.9817 418.888C56.3392 418.394 55.6967 417.998 55.1037 417.504L54.6096 417.158C53.6212 416.466 52.6329 415.774 51.6445 415.082C50.9526 414.638 50.3099 414.193 49.6181 413.749L49.124 413.452C48.1356 412.809 47.0975 412.167 46.1091 411.524C45.3678 411.08 44.6761 410.635 43.5394 409.993C42.5016 409.4 41.4638 408.806 40.4754 408.262C39.5858 407.768 38.6961 407.324 37.8065 406.83C36.7687 406.286 35.6816 405.742 34.6438 405.248C33.7542 404.803 32.815 404.358 31.9254 403.963C31.2336 403.617 30.4923 403.321 29.8004 402.975C26.8846 394.623 24.3642 386.024 22.1897 377.326C22.684 377.672 23.1286 377.968 23.6228 378.264L23.5242 378.215ZM54.412 449.974C54.9556 449.479 55.499 448.985 56.0427 448.491L62.2202 442.313C71.5113 453.878 80.3576 474.585 87.5729 501.519C74.0812 486.297 62.1214 469.693 52.0396 452.049L54.412 449.924V449.974ZM51.9901 432.676C49.9639 434.802 47.7403 436.976 45.1704 439.299C42.3534 433.764 39.734 428.179 37.3124 422.594C42.5016 425.659 47.394 429.019 51.9901 432.676Z" fill="#DBC8B5" fill-opacity="0.1"/>
<path d="M294.298 115.1C294.298 110.999 291.58 107.589 287.725 106.847C258.073 101.115 246.459 86.3377 241.764 48.2839C241.221 43.9843 237.91 40.9697 233.758 40.9697C229.607 40.9697 226.296 43.9843 225.752 48.3333C221.107 86.3871 209.493 101.164 179.841 106.946C175.986 107.687 173.268 111.098 173.268 115.199C173.268 119.301 175.986 122.711 179.841 123.453C209.938 129.235 222.243 144.654 226.889 182.263C227.531 187.6 231.139 189.528 234.055 189.528C236.971 189.528 240.627 187.6 241.319 182.115C245.915 144.555 258.073 129.185 287.775 123.453C291.63 122.711 294.348 119.301 294.348 115.199L294.298 115.1ZM271.96 115.15C252.291 121.921 240.529 134.572 234.005 155.971C227.383 134.572 215.473 121.97 195.556 115.199C215.819 108.231 227.432 95.184 233.709 72.1046C240.035 95.184 251.648 108.281 271.96 115.199V115.15Z" fill="#DBC8B5" fill-opacity="0.1"/>
</svg>
