<svg width="180" height="180" viewBox="0 0 180 180" fill="none" xmlns="http://www.w3.org/2000/svg">
<g clip-path="url(#clip0_1_165)">
<mask id="mask0_1_165" style="mask-type:luminance" maskUnits="userSpaceOnUse" x="1" y="1" width="178" height="178">
<path d="M1.42188 90.0005C1.42188 138.933 41.0832 178.6 90.0103 178.6C138.937 178.6 178.599 138.933 178.599 90.0005C178.599 41.0675 138.937 1.40137 90.0103 1.40137C41.0832 1.40137 1.42188 41.0675 1.42188 90.0005Z" fill="white"/>
</mask>
<g mask="url(#mask0_1_165)">
<path opacity="0.2" d="M104.662 131.348C104.697 131.306 104.732 131.264 104.767 131.222C104.802 131.18 104.83 131.138 104.851 131.089C104.879 131.047 104.9 130.998 104.928 130.956C104.949 130.907 104.97 130.858 104.991 130.809C105.005 130.76 105.026 130.711 105.033 130.661C105.047 130.612 105.054 130.556 105.061 130.507C105.068 130.458 105.075 130.409 105.082 130.353C105.082 130.304 105.082 130.248 105.082 130.199C105.082 130.15 105.082 130.094 105.068 130.045C105.068 129.996 105.054 129.94 105.04 129.891C105.026 129.842 105.019 129.793 104.998 129.744C104.984 129.695 104.963 129.639 104.935 129.59C104.914 129.541 104.893 129.499 104.872 129.457C104.844 129.408 104.809 129.359 104.781 129.31C104.767 129.289 104.753 129.261 104.732 129.233C96.7482 119.181 85.4374 113.417 73.7064 113.417C63.9924 113.417 54.6006 117.318 47.0717 124.435C45.4539 122.228 44.0812 119.868 42.9816 117.381C60.5536 112.758 73.1181 96.4028 73.1181 77.75C73.1181 72.5947 72.1866 67.5655 70.3446 62.7885C70.3446 62.7815 70.3376 62.7745 70.3306 62.7605C70.3096 62.7044 70.2816 62.6624 70.2536 62.6134C70.2326 62.5714 70.2116 62.5223 70.1836 62.4803C70.1555 62.4383 70.1205 62.3963 70.0855 62.3542C70.0505 62.3122 70.0225 62.2702 69.9875 62.2352C69.9524 62.2001 69.9104 62.1721 69.8754 62.1371C69.8334 62.1021 69.7984 62.067 69.7563 62.039C69.7143 62.011 69.6723 61.99 69.6303 61.969C69.5813 61.941 69.5392 61.9129 69.4902 61.8919C69.4412 61.8709 69.3992 61.8639 69.3501 61.8429C69.3011 61.8289 69.2521 61.8079 69.2031 61.7939C69.154 61.7869 69.105 61.7799 69.056 61.7729C69 61.7729 68.9509 61.7589 68.8949 61.7589C68.8459 61.7589 68.7898 61.7589 68.7408 61.7729C68.6918 61.7729 68.6358 61.7729 68.5867 61.7869C68.5727 61.7869 68.5657 61.7869 68.5587 61.7869C50.0062 65.6953 36.5383 82.548 36.5383 101.852C36.5383 106.363 37.2527 110.769 38.6534 114.986C34.8575 115.588 30.9355 115.588 27.1395 114.986C28.5472 110.769 29.2546 106.356 29.2546 101.852C29.2546 82.541 15.7867 65.6953 -2.7588 61.7869C-2.76581 61.7869 -2.77982 61.7869 -2.78682 61.7869C-2.84985 61.7729 -2.90588 61.7729 -2.96891 61.7659C-3.01093 61.7659 -3.05296 61.7589 -3.09498 61.7589C-3.16501 61.7589 -3.23505 61.7729 -3.30508 61.7799C-3.3331 61.7799 -3.36812 61.7799 -3.39613 61.7939C-3.47317 61.8079 -3.54321 61.8359 -3.61324 61.8639C-3.63425 61.8709 -3.66227 61.8779 -3.68328 61.8849C-3.75331 61.9129 -3.82335 61.955 -3.88638 61.997C-3.90739 62.011 -3.92841 62.018 -3.94942 62.032C-4.01245 62.074 -4.06147 62.1231 -4.1175 62.1721C-4.13851 62.1931 -4.16653 62.2071 -4.18754 62.2352C-4.22956 62.2772 -4.26458 62.3262 -4.3066 62.3752C-4.33461 62.4103 -4.36263 62.4383 -4.38364 62.4803C-4.41165 62.5223 -4.43266 62.5714 -4.46068 62.6204C-4.48869 62.6694 -4.5097 62.7115 -4.53071 62.7605C-4.53071 62.7675 -4.53772 62.7745 -4.54472 62.7885C-6.37966 67.5655 -7.31814 72.5947 -7.31814 77.75C-7.31814 96.4028 5.2463 112.758 22.8183 117.381C21.7117 119.868 20.346 122.228 18.7282 124.435C11.1993 117.325 1.81454 113.424 -7.89944 113.424C-19.6234 113.424 -30.9342 119.188 -38.9253 129.24C-38.9463 129.261 -38.9533 129.289 -38.9744 129.317C-39.0094 129.366 -39.0374 129.408 -39.0654 129.464C-39.0934 129.506 -39.1144 129.555 -39.1354 129.604C-39.1565 129.653 -39.1775 129.702 -39.1915 129.751C-39.2055 129.8 -39.2195 129.849 -39.2335 129.905C-39.2475 129.954 -39.2545 130.003 -39.2615 130.052C-39.2685 130.108 -39.2685 130.157 -39.2755 130.213C-39.2755 130.262 -39.2755 130.311 -39.2755 130.36C-39.2755 130.409 -39.2685 130.465 -39.2615 130.514C-39.2545 130.563 -39.2405 130.612 -39.2335 130.668C-39.2195 130.718 -39.2055 130.767 -39.1845 130.816C-39.1635 130.865 -39.1494 130.914 -39.1284 130.956C-39.1074 131.005 -39.0794 131.047 -39.0514 131.096C-39.0234 131.138 -38.9954 131.187 -38.9674 131.229C-38.9323 131.271 -38.8973 131.313 -38.8623 131.355C-38.8413 131.376 -38.8273 131.404 -38.7993 131.425C-31.2774 138.766 -21.3883 142.807 -10.96 142.807C0.49086 142.807 11.2694 137.897 18.9103 129.282C26.2781 138.31 31.3207 158.994 31.3207 172.996C31.3207 173.886 32.028 174.607 32.9035 174.607C33.7789 174.607 34.4863 173.886 34.4863 172.996C34.4863 158.994 39.5289 138.31 46.8966 129.282C54.5305 137.897 65.3091 142.807 76.7669 142.807C87.1953 142.807 97.0844 138.766 104.606 131.425C104.627 131.404 104.648 131.376 104.669 131.355M67.8654 65.2891C69.2451 69.2956 69.9524 73.4913 69.9524 77.771C69.9524 95.093 58.1934 110.265 41.798 114.376C40.4183 110.377 39.711 106.181 39.711 101.887C39.711 84.5653 51.477 69.3937 67.8724 65.2891M-4.15952 77.771C-4.15952 73.4843 -3.45216 69.2956 -2.07245 65.2891C14.3229 69.3937 26.089 84.5653 26.089 101.887C26.089 106.181 25.3816 110.37 24.0019 114.376C7.60651 110.265 -4.15252 95.093 -4.15252 77.771M-10.967 139.585C-20.0787 139.585 -28.7351 136.23 -35.5146 130.122C-28.1258 121.437 -18.3768 116.66 -7.91345 116.66C1.05115 116.66 9.7356 120.309 16.7042 126.949C9.65856 134.99 -0.335564 139.585 -10.96 139.585M32.8965 157.236C30.8444 145.882 26.8103 133.568 20.9694 126.767C22.9934 124.077 24.6743 121.163 25.9769 118.082C28.2531 118.481 30.5713 118.698 32.8965 118.698C35.2217 118.698 37.5398 118.481 39.816 118.082C41.1187 121.163 42.7995 124.07 44.8306 126.767C38.9826 133.568 34.9555 145.882 32.9035 157.236M49.0958 126.949C56.0573 120.309 64.7418 116.66 73.7134 116.66C84.1837 116.66 93.9257 121.437 101.315 130.122C94.535 136.237 85.8786 139.585 76.7669 139.585C66.1425 139.585 56.1414 134.99 49.1028 126.949" fill="#DAC7B4"/>
<path opacity="0.2" d="M51.4838 34.4412C51.4838 34.4412 51.4838 34.4692 51.4838 34.4832C51.4838 34.4832 51.4838 34.4832 51.4838 34.4902C51.4978 34.5813 51.5188 34.6724 51.5468 34.7564C51.5468 34.7704 51.5538 34.7774 51.5608 34.7914C51.5888 34.8685 51.6239 34.9455 51.6589 35.0226C51.6659 35.0366 51.6729 35.0576 51.6869 35.0716C51.7289 35.1416 51.7709 35.2047 51.8199 35.2677C51.834 35.2817 51.841 35.2957 51.855 35.3098C51.904 35.3728 51.96 35.4288 52.0231 35.4849C52.0301 35.4919 52.0441 35.4989 52.0511 35.5059C52.1141 35.5619 52.1911 35.618 52.2612 35.66C52.3382 35.709 52.4153 35.744 52.4993 35.7791C52.5063 35.7791 52.5203 35.7861 52.5273 35.7931C52.6044 35.8211 52.6884 35.8421 52.7654 35.8631C52.7794 35.8631 52.8004 35.8631 52.8145 35.8701C52.8285 35.8701 52.8425 35.8701 52.8635 35.8771C66.3454 37.7893 66.8286 53.003 66.8426 53.6544C66.8426 53.6684 66.8426 53.6894 66.8426 53.7034C66.8426 53.7314 66.8426 53.7594 66.8426 53.7945C66.8426 53.8155 66.8427 53.8365 66.8497 53.8645C66.8497 53.8995 66.8637 53.9275 66.8637 53.9626C66.8637 53.9836 66.8707 53.9976 66.8777 54.0186C66.8847 54.0536 66.8987 54.0886 66.9057 54.1237C66.9057 54.1377 66.9127 54.1517 66.9197 54.1727C66.9337 54.2077 66.9477 54.2427 66.9617 54.2778C66.9617 54.2918 66.9757 54.2988 66.9757 54.3128C66.9897 54.3478 67.0107 54.3828 67.0317 54.4179C67.0317 54.4249 67.0458 54.4389 67.0458 54.4459C67.0668 54.4809 67.0878 54.5159 67.1158 54.5509C67.1158 54.5579 67.1228 54.565 67.1298 54.572C67.1578 54.607 67.1788 54.642 67.2068 54.677C67.2068 54.677 67.2138 54.684 67.2208 54.691C67.2489 54.7261 67.2839 54.7611 67.3189 54.7961C67.3539 54.8311 67.3889 54.8661 67.431 54.8942C67.7041 55.1183 68.0473 55.2514 68.4185 55.2584H68.4465C68.4465 55.2584 68.4675 55.2584 68.4745 55.2584C68.5865 55.2584 68.6916 55.2444 68.7966 55.2164C68.8527 55.2024 68.9017 55.1883 68.9507 55.1743C68.9507 55.1743 68.9507 55.1743 68.9577 55.1743C69.0068 55.1603 69.0488 55.1393 69.0978 55.1183C69.0978 55.1183 69.1118 55.1183 69.1118 55.1113C69.1538 55.0903 69.1959 55.0693 69.2379 55.0483C69.2449 55.0483 69.2519 55.0413 69.2589 55.0342C69.2939 55.0132 69.3289 54.9922 69.3639 54.9642C69.3779 54.9572 69.3849 54.9502 69.3919 54.9432C69.42 54.9222 69.455 54.8942 69.483 54.8731C69.497 54.8591 69.504 54.8521 69.518 54.8451C69.546 54.8241 69.567 54.7961 69.5951 54.7751C69.6091 54.7611 69.6231 54.7471 69.6301 54.7331C69.6511 54.712 69.6721 54.684 69.6931 54.663C69.7071 54.649 69.7211 54.628 69.7351 54.614C69.7561 54.593 69.7702 54.565 69.7842 54.5439C69.7982 54.5229 69.8122 54.5019 69.8192 54.4809C69.8332 54.4599 69.8472 54.4319 69.8612 54.4109C69.8752 54.3898 69.8892 54.3618 69.8962 54.3408C69.9102 54.3198 69.9172 54.2988 69.9242 54.2708C69.9382 54.2427 69.9452 54.2147 69.9522 54.1867C69.9592 54.1657 69.9662 54.1447 69.9732 54.1167C69.9803 54.0886 69.9873 54.0606 69.9943 54.0326C69.9943 54.0116 70.0083 53.9906 70.0083 53.9626C70.0083 53.9346 70.0153 53.8995 70.0223 53.8715C70.0223 53.8505 70.0293 53.8225 70.0293 53.8015C70.0293 53.7734 70.0293 53.7454 70.0293 53.7174C70.0293 53.6964 70.0293 53.6824 70.0293 53.6684C70.0433 53.024 70.4845 37.8173 84.0084 35.8981C84.0225 35.8981 84.0365 35.8981 84.0575 35.8911C84.0715 35.8911 84.0925 35.8911 84.1065 35.8841C84.1905 35.8631 84.2746 35.8421 84.3516 35.8141C84.3516 35.8141 84.3656 35.8141 84.3726 35.8071C84.5407 35.744 84.7018 35.646 84.8349 35.5269C84.8349 35.5269 84.8489 35.5199 84.8559 35.5129C84.9189 35.4569 84.9749 35.3938 85.031 35.3308C85.038 35.3168 85.052 35.3098 85.059 35.2957C85.108 35.2327 85.157 35.1627 85.1991 35.0926C85.2061 35.0786 85.2131 35.0646 85.2201 35.0506C85.2621 34.9735 85.2971 34.8965 85.3251 34.8194C85.3251 34.8054 85.3251 34.7984 85.3391 34.7844C85.3671 34.7004 85.3881 34.6093 85.4022 34.5183C85.4022 34.5183 85.4022 34.5183 85.4022 34.5113C85.4022 34.4972 85.4022 34.4832 85.4022 34.4692C85.4022 34.4342 85.4092 34.3992 85.4092 34.3642C85.4092 34.3361 85.4092 34.3081 85.4092 34.2871C85.4092 34.2661 85.4092 34.2311 85.4092 34.2101C85.4092 34.175 85.4092 34.14 85.4022 34.105C85.4022 34.091 85.4022 34.077 85.4022 34.063C85.4022 34.063 85.4022 34.056 85.4022 34.049C85.4022 34.0139 85.3881 33.9719 85.3811 33.9369C85.3811 33.9229 85.3811 33.9019 85.3741 33.8879C85.3671 33.8528 85.3531 33.8248 85.3461 33.7898C85.3461 33.7688 85.3321 33.7478 85.3251 33.7338C85.3181 33.7057 85.3041 33.6777 85.2901 33.6567C85.2831 33.6357 85.2691 33.6077 85.2621 33.5867C85.2551 33.5657 85.2411 33.5446 85.2271 33.5236C85.2131 33.4956 85.1991 33.4746 85.185 33.4466C85.171 33.4256 85.157 33.4045 85.143 33.3835C85.129 33.3625 85.115 33.3345 85.094 33.3135C85.073 33.2855 85.052 33.2575 85.031 33.2364C85.017 33.2224 85.01 33.2084 84.996 33.1944C84.9609 33.1594 84.9259 33.1244 84.8909 33.0894C84.8139 33.0193 84.7298 32.9563 84.6458 32.9002C84.6108 32.8792 84.5757 32.8582 84.5407 32.8442C84.5267 32.8442 84.5197 32.8302 84.5057 32.8232C84.4777 32.8092 84.4567 32.8022 84.4287 32.7882C84.4076 32.7742 84.3796 32.7671 84.3516 32.7531C84.3376 32.7531 84.3236 32.7461 84.3026 32.7391C84.2676 32.7251 84.2256 32.7181 84.1905 32.7041C84.1835 32.7041 84.1695 32.7041 84.1625 32.7041C84.1205 32.6971 84.0715 32.6831 84.0295 32.6761C70.5475 30.7639 70.0643 15.5502 70.0503 14.8988C70.0503 14.8848 70.0503 14.8638 70.0503 14.8498C70.0503 14.8218 70.0503 14.7938 70.0503 14.7657C70.0503 14.7377 70.0503 14.7167 70.0363 14.6887C70.0363 14.6607 70.0293 14.6327 70.0223 14.6046C70.0223 14.5766 70.0083 14.5556 70.0083 14.5276C70.0013 14.4996 69.9943 14.4716 69.9873 14.4435C69.9873 14.4225 69.9733 14.3945 69.9662 14.3735C69.9592 14.3455 69.9452 14.3175 69.9382 14.2964C69.9312 14.2754 69.9242 14.2544 69.9102 14.2404C69.8962 14.2124 69.8822 14.1774 69.8612 14.1494C69.8542 14.1353 69.8472 14.1213 69.8402 14.1143C69.8192 14.0793 69.7982 14.0443 69.7701 14.0023C69.483 13.589 69.0138 13.3158 68.4745 13.3018C68.4605 13.3018 68.4535 13.3018 68.4395 13.3018C68.4255 13.3018 68.4185 13.3018 68.4045 13.3018C67.6411 13.3158 67.0177 13.8552 66.8567 14.5696C66.8567 14.5696 66.8567 14.5836 66.8567 14.5906C66.8496 14.6327 66.8426 14.6677 66.8356 14.7097C66.8356 14.7307 66.8356 14.7447 66.8286 14.7657C66.8286 14.7938 66.8286 14.8288 66.8216 14.8568C66.8216 14.8708 66.8216 14.8848 66.8216 14.9058C66.8076 15.5502 66.3174 30.7639 52.8425 32.6831C52.2262 32.7742 51.7359 33.2014 51.5398 33.7548C51.5398 33.7548 51.5398 33.7618 51.5398 33.7688C51.5258 33.8178 51.5118 33.8598 51.4978 33.9089C51.4978 33.9229 51.4978 33.9369 51.4908 33.9439C51.4838 33.9859 51.4768 34.0209 51.4698 34.063C51.4698 34.063 51.4698 34.07 51.4698 34.077C51.4698 34.091 51.4698 34.105 51.4698 34.119C51.4698 34.154 51.4628 34.189 51.4628 34.2241C51.4628 34.2521 51.4628 34.2801 51.4628 34.3011C51.4628 34.3221 51.4628 34.3572 51.4628 34.3782C51.4628 34.4132 51.4628 34.4482 51.4698 34.4832M68.4745 22.9049C69.9522 27.0305 72.7607 31.7235 78.1044 34.2521C72.7607 36.7807 69.9452 41.4737 68.4745 45.5993C66.9967 41.4737 64.1883 36.7807 58.8445 34.2521C64.1883 31.7235 67.0037 27.0305 68.4745 22.9049Z" fill="#DAC7B4"/>
<path opacity="0.2" d="M158.745 45.3821C159.235 45.7464 159.894 45.8024 160.44 45.5362C160.993 45.2701 161.343 44.7167 161.35 44.1073C161.42 40.0097 160.027 36.6756 157.204 34.2031C150.502 28.3263 137.825 29.356 135.073 29.6642C125.849 25.2024 110.924 22.5197 102.387 25.9168C99.1234 27.2126 96.9733 29.2719 95.9858 32.0597C91.9377 44.0163 109.069 53.129 112.92 55.0062C117.97 74.4506 128.595 77.7777 129.05 77.9107C129.631 78.0788 130.247 77.9177 130.675 77.4975C131.102 77.0772 131.256 76.4608 131.081 75.8865C129.659 71.2285 130.17 67.1449 130.738 64.7704C134.029 67.7543 137.16 71.6698 138.939 76.6079C142.174 85.5946 140.304 96.0592 133.378 107.708C132.916 108.478 133.182 109.473 133.959 109.928C134.218 110.082 134.506 110.152 134.786 110.152C135.346 110.152 135.892 109.865 136.2 109.354C143.645 96.8227 145.599 85.4335 142.013 75.4942C136.544 60.3366 120.274 54.2498 119.588 54.0046C118.733 53.6964 117.802 54.1237 117.487 54.9642C117.172 55.8047 117.606 56.7363 118.453 57.0445C118.537 57.0725 123.055 58.7746 127.978 62.487C127.362 64.3922 126.423 68.3357 127.145 73.2248C123.972 70.9133 118.881 65.5059 115.911 53.4863C115.792 53.003 115.456 52.6037 115.001 52.3936C114.804 52.3095 95.5726 43.4839 99.0884 33.1104C99.7397 31.2682 101.267 29.8603 103.613 28.9287C111.198 25.9098 125.478 28.4804 134.057 32.7812C134.351 32.9283 134.688 32.9913 135.024 32.9423C135.164 32.9283 148.779 31.1351 155.047 36.6336C156.462 37.8734 157.372 39.3793 157.799 41.1865C155.362 40.1218 151.615 39.0992 147.42 40.0938C146.846 40.2269 146.391 40.6611 146.23 41.2215C146.068 41.7819 146.223 42.3842 146.629 42.8045C146.776 42.9516 161.378 58.1232 156.679 84.9222C152.596 108.226 135.948 113.108 131.473 114.012C128.952 109.704 117.858 94.8615 83.5404 92.3049C82.679 92.2418 81.9296 92.8442 81.8105 93.6847C81.6845 94.5253 82.2448 95.3238 83.0852 95.5059C83.1482 95.5199 89.4234 96.9908 94.375 107.196C99.5366 117.843 106.239 123.552 113.656 123.818C110.819 126.501 108.256 130.276 107.044 135.55C103.879 149.37 101.61 150.204 95.5376 152.431C95.0403 152.613 94.6691 153.019 94.5291 153.517C94.389 154.021 94.501 154.56 94.8302 154.967C95.1244 155.331 97.9538 158.518 105.868 158.518C109.986 158.518 117.515 155.149 123.951 148.698C129.162 143.472 135.339 134.584 135.185 121.878C135.171 120.981 134.372 120.302 133.532 120.281C132.629 120.295 131.907 121.023 131.914 121.92C132.061 133.505 126.402 141.637 121.626 146.421C115.883 152.172 109.223 155.275 105.875 155.275C103.031 155.275 101.028 154.805 99.6837 154.28C104.733 152.039 107.339 148.908 110.238 136.265C112.122 128.027 117.683 124.056 121.682 122.214L126.29 120.694C127.103 120.428 127.572 119.58 127.362 118.761C127.152 117.941 126.332 117.416 125.492 117.563C125.443 117.57 123.566 117.913 121.01 119.02L118.509 119.846C108.298 123.271 101.351 114.096 97.3235 105.795C95.1524 101.327 92.7221 98.3147 90.523 96.3044C121.64 100.675 129.001 116.281 129.078 116.449C129.365 117.101 130.051 117.507 130.766 117.416C131.004 117.388 154.851 114.362 159.915 85.4825C163.858 62.9703 155.159 48.4011 151.006 42.9446C155.376 42.9866 158.724 45.3681 158.759 45.3961" fill="#DAC7B4"/>
</g>
<path d="M90.0105 180C40.3901 180 0.0214233 139.626 0.0214233 90C0.0214233 40.3736 40.3901 0 90.0105 0C139.631 0 180 40.3736 180 90C180 139.626 139.631 180 90.0105 180ZM90.0105 2.80177C41.9309 2.80177 2.82286 41.9216 2.82286 90C2.82286 138.078 41.9379 177.198 90.0105 177.198C138.083 177.198 177.198 138.078 177.198 90C177.198 41.9216 138.09 2.80177 90.0105 2.80177Z" fill="#DAC7B4"/>
</g>
<defs>
<clipPath id="clip0_1_165">
<rect width="180" height="180" fill="white"/>
</clipPath>
</defs>
</svg>
