<svg width="247" height="52" viewBox="0 0 247 52" fill="none" xmlns="http://www.w3.org/2000/svg">
<g clip-path="url(#clip0_1_132)">
<path d="M123.437 49.8243C122.966 50.273 122.421 50.6319 121.81 50.9011C121.162 51.1553 120.478 51.2825 119.786 51.2825H119.646C119.602 51.2825 119.565 51.2825 119.513 51.2675C119.108 51.2301 118.696 51.103 118.284 50.8862C117.864 50.6693 117.482 50.3552 117.128 49.9589C116.782 49.5626 116.488 49.0541 116.267 48.4559C116.046 47.8577 115.936 47.1473 115.936 46.3472C115.936 45.4947 116.061 44.7469 116.311 44.1263C116.562 43.5056 116.878 42.9897 117.261 42.5859C117.636 42.1821 118.056 41.883 118.505 41.6886C118.954 41.4941 119.381 41.3969 119.778 41.3969C120.455 41.3969 121.103 41.5166 121.714 41.7633C122.325 42.0026 122.877 42.3541 123.363 42.8027L123.437 42.87L123.864 42.3989L123.79 42.3316C123.253 41.8306 122.634 41.4418 121.942 41.1726C120.551 40.6267 118.947 40.6342 117.548 41.21C117.202 41.3446 116.863 41.5166 116.562 41.7185C116.252 41.9204 115.973 42.1447 115.708 42.3915C115.163 42.9224 114.743 43.5131 114.464 44.1637C114.162 44.8442 114 45.5845 114 46.3472C114 46.7211 114.037 47.0949 114.118 47.4539C114.191 47.8128 114.309 48.1717 114.464 48.5082C114.743 49.1663 115.163 49.7645 115.708 50.2954C116.216 50.7889 116.834 51.1853 117.548 51.4769C118.255 51.7685 119.005 51.9181 119.778 51.9181C120.551 51.9181 121.309 51.7685 122.038 51.4769C122.377 51.3348 122.701 51.1628 123.01 50.9684C123.312 50.774 123.599 50.5497 123.864 50.2954L123.93 50.2281L123.51 49.757L123.437 49.8243Z" fill="#074F4B"/>
<path d="M137.776 42.4962C137.518 42.2344 137.224 41.9952 136.914 41.8007C136.605 41.6063 136.274 41.4343 135.935 41.2848C135.575 41.1502 135.214 41.038 134.846 40.9632C134.11 40.8062 133.285 40.8062 132.549 40.9632C132.181 41.038 131.813 41.1502 131.453 41.2848C131.114 41.4269 130.783 41.6063 130.474 41.8007C130.164 41.9952 129.87 42.2344 129.612 42.4962C129.355 42.7429 129.119 43.0196 128.906 43.3112C128.7 43.6029 128.516 43.9244 128.361 44.2534C128.067 44.9339 127.912 45.6742 127.912 46.4369C127.912 46.8108 127.949 47.1847 128.022 47.5436C128.096 47.9026 128.206 48.254 128.361 48.598C128.655 49.2635 129.075 49.8617 129.605 50.3702C130.128 50.8787 130.746 51.2825 131.445 51.5666C132.174 51.8583 132.925 52.0078 133.683 52.0078C134.441 52.0078 135.199 51.8583 135.928 51.5666C136.627 51.2825 137.246 50.8787 137.768 50.3702C138.026 50.116 138.269 49.8393 138.475 49.5476C138.688 49.256 138.865 48.9345 139.012 48.598C139.167 48.2615 139.277 47.9026 139.358 47.5436C139.432 47.1772 139.476 46.8108 139.476 46.4369C139.476 45.6592 139.321 44.9264 139.012 44.2534C138.725 43.5954 138.306 43.0047 137.768 42.4962H137.776ZM133.705 51.3722C133.308 51.3722 132.873 51.275 132.424 51.0806C131.975 50.8862 131.556 50.587 131.173 50.1833C130.79 49.7795 130.474 49.2635 130.231 48.6428C129.988 48.0222 129.863 47.2819 129.863 46.4369C129.863 45.5919 129.988 44.8367 130.231 44.216C130.481 43.5954 130.798 43.0794 131.173 42.6756C131.548 42.2718 131.975 41.9727 132.424 41.7708C132.873 41.5764 133.308 41.4717 133.705 41.4717C134.103 41.4717 134.552 41.5689 135.001 41.7708C135.45 41.9652 135.869 42.2718 136.252 42.6756C136.635 43.0794 136.951 43.5954 137.194 44.216C137.437 44.8367 137.562 45.5845 137.562 46.4369C137.562 47.2894 137.437 48.0297 137.187 48.6428C136.936 49.256 136.62 49.7795 136.245 50.1833C135.869 50.587 135.45 50.8862 135.001 51.0806C134.552 51.275 134.11 51.3722 133.705 51.3722Z" fill="#074F4B"/>
<path d="M143.892 51.9106H145.784V46.7136H151.592V46.0855H145.784V41.5689H152.438V40.9408H143.892V51.9106Z" fill="#074F4B"/>
<path d="M157.186 51.9102H159.085V46.7132H164.892V46.0851H159.085V41.5686H165.739V40.9404H157.186V51.9102Z" fill="#074F4B"/>
<path d="M170.502 51.8956H179.063V51.2675H172.394V46.6986H178.216V46.0704H172.394V41.5614H179.063V40.9258H170.502V51.8956Z" fill="#074F4B"/>
<path d="M192.416 41.5614V40.9258H183.848V51.8956H192.416V51.2675H185.747V46.6986H191.562V46.0704H185.747V41.5614H192.416Z" fill="#074F4B"/>
<path d="M63.9651 35.5361H60V10H79.4726V11.0266H63.9651V22.1977H77.4937V23.2243H63.9651V35.5437V35.5361Z" fill="#9E8069"/>
<path d="M87.0275 32.1825C85.8063 30.9886 84.8574 29.6122 84.1806 28.0532C83.8275 27.2624 83.57 26.4487 83.4081 25.6046C83.2463 24.7605 83.158 23.9011 83.158 23.0266C83.158 21.2319 83.4964 19.5361 84.1806 17.9392C84.5337 17.1711 84.9456 16.4411 85.4165 15.7491C85.8946 15.057 86.4243 14.4183 87.0275 13.8479C87.6234 13.2319 88.2781 12.692 88.9917 12.2281C89.7053 11.7719 90.4483 11.3688 91.2354 11.0266C92.0593 10.7072 92.898 10.4563 93.744 10.2738C94.59 10.0913 95.4654 10 96.3776 10C97.2898 10 98.1652 10.0913 99.0112 10.2738C99.8572 10.4563 100.696 10.7072 101.52 11.0266C102.307 11.3688 103.05 11.7719 103.763 12.2281C104.477 12.6844 105.132 13.2243 105.728 13.8479C106.964 15.0418 107.913 16.4106 108.575 17.9468C109.273 19.5285 109.627 21.2243 109.627 23.0342C109.627 23.9087 109.538 24.7681 109.362 25.6122C109.185 26.4563 108.92 27.27 108.575 28.0608C108.244 28.8517 107.839 29.5894 107.353 30.2662C106.868 30.9506 106.324 31.5894 105.728 32.1901C104.529 33.384 103.131 34.3118 101.52 34.9734C99.8498 35.6578 98.1358 36 96.3776 36C94.6194 36 92.9127 35.6578 91.2354 34.9734C89.6243 34.3118 88.2193 33.384 87.0275 32.1901V32.1825ZM105.639 23.0266C105.639 20.9582 105.345 19.1711 104.757 17.6654C104.168 16.1597 103.418 14.9202 102.513 13.9392C101.601 12.9582 100.608 12.2281 99.5262 11.7491C98.4448 11.27 97.4075 11.0266 96.4144 11.0266C95.4212 11.0266 94.4208 11.27 93.332 11.7491C92.2506 12.2281 91.2501 12.9582 90.3453 13.9392C89.4331 14.9202 88.6901 16.1597 88.1016 17.6654C87.513 19.1711 87.2188 20.9582 87.2188 23.0266C87.2188 25.0951 87.513 26.8517 88.1016 28.3574C88.6901 29.8631 89.4404 31.1027 90.3453 32.0837C91.2501 33.0646 92.2506 33.7871 93.332 34.2586C94.4134 34.73 95.4433 34.9658 96.4144 34.9658C97.3854 34.9658 98.4448 34.73 99.5262 34.2586C100.608 33.7871 101.601 33.0646 102.498 32.0837C103.396 31.1027 104.146 29.8631 104.742 28.3574C105.338 26.8517 105.639 25.0799 105.639 23.0266Z" fill="#9E8069"/>
<path d="M133.005 35.5665L123.471 23.1787H119.815V35.5665H115.85V10H127.37C128.466 10 129.496 10.1597 130.467 10.4791C131.438 10.7985 132.284 11.27 133.005 11.8859C133.726 12.5019 134.278 13.2167 134.66 14.0304C135.043 14.8441 135.234 15.6958 135.234 16.5932C135.234 17.4905 135.043 18.3422 134.66 19.1559C134.278 19.9696 133.726 20.6844 133.005 21.3004C132.321 21.9011 131.534 22.3498 130.636 22.6616C129.739 22.9734 128.76 23.1483 127.708 23.1863L137.242 35.5741H132.998L133.005 35.5665ZM119.815 22.1597H126.038C126.965 22.1597 127.767 22.0228 128.437 21.7414C129.106 21.4677 129.65 21.0722 130.062 20.5703C130.474 20.0684 130.776 19.4829 130.974 18.8137C131.173 18.1445 131.269 17.3992 131.269 16.5932C131.269 15.7871 131.173 15.0342 130.974 14.3498C130.776 13.6654 130.474 13.0798 130.062 12.5932C129.65 12.0989 129.106 11.7186 128.437 11.4373C127.767 11.1635 126.965 11.019 126.038 11.019H119.815V22.1597Z" fill="#9E8069"/>
<path d="M149.631 35.5743V11.0267H139.074V10.0001H164.152V11.0267H153.596V35.5743H149.631Z" fill="#9E8069"/>
<path d="M173.252 31.9544C172.715 31.3536 172.244 30.73 171.847 30.0837C171.442 29.4297 171.104 28.7376 170.824 28C170.545 27.2624 170.339 26.4563 170.206 25.5817C170.074 24.7072 170.008 23.7338 170.008 22.6692V10H173.973V22.7072C173.973 23.5361 174.002 24.4106 174.069 25.3156C174.127 26.2205 174.245 27.1179 174.407 28C174.569 28.8821 174.812 29.7262 175.135 30.5247C175.452 31.3232 175.871 32.0304 176.386 32.6388C176.901 33.2471 177.533 33.7338 178.291 34.0913C179.042 34.4563 179.946 34.6388 180.998 34.6388H181.153C182.514 34.6388 183.816 34.3422 185.052 33.7567C186.288 33.1711 187.384 32.3346 188.333 31.2471C189.304 30.1141 190.039 28.8289 190.547 27.3764C191.055 25.924 191.312 24.365 191.334 22.7072V10H192.327V22.6768C192.327 24.4715 192.04 26.1597 191.474 27.7491C190.908 29.3384 190.098 30.7376 189.046 31.9544C188.075 33.0875 186.898 33.9848 185.515 34.6388C184.132 35.3232 182.676 35.6654 181.153 35.6654C179.63 35.6654 178.173 35.3232 176.79 34.6388C175.452 34 174.275 33.1027 173.259 31.9544H173.252Z" fill="#9E8069"/>
<path d="M219.716 34.9278L199.53 12.4639V35.5361H198.537V10H201.818L219.246 29.3308V10H220.239V35.5361L219.709 34.9278H219.716Z" fill="#9E8069"/>
<path d="M226.498 35.5361V10H246V11.0266H230.456V22.1977H244.014V23.2243H230.456V34.5247H246V35.5513H226.498V35.5361Z" fill="#9E8069"/>
</g>
<defs>
<clipPath id="clip0_1_132">
<rect width="247" height="52" fill="white"/>
</clipPath>
</defs>
</svg>
