<svg width="617" height="473" viewBox="0 0 617 473" fill="none" xmlns="http://www.w3.org/2000/svg">
<path d="M615.627 291.004C615.699 290.913 615.771 290.821 615.832 290.718C615.883 290.637 615.935 290.555 615.986 290.463C616.047 290.361 616.119 290.248 616.18 290.146C616.221 290.064 616.262 289.993 616.293 289.911C616.355 289.788 616.416 289.676 616.467 289.553C616.498 289.482 616.529 289.4 616.549 289.329C616.6 289.196 616.652 289.073 616.693 288.94C616.713 288.859 616.734 288.787 616.754 288.705C616.785 288.572 616.826 288.44 616.856 288.317C616.877 288.235 616.887 288.143 616.897 288.061C616.918 287.939 616.938 287.806 616.959 287.683C616.969 287.581 616.969 287.489 616.979 287.387C616.979 287.275 617 287.152 617 287.04C617 286.937 617 286.825 617 286.723C617 286.61 617 286.508 616.99 286.396C616.99 286.283 616.959 286.181 616.949 286.069C616.938 285.967 616.928 285.854 616.908 285.752C616.887 285.65 616.867 285.548 616.836 285.445C616.805 285.333 616.785 285.221 616.754 285.108C616.734 285.016 616.693 284.934 616.672 284.853C616.631 284.73 616.59 284.607 616.549 284.485C616.518 284.413 616.488 284.352 616.457 284.28C616.396 284.148 616.334 284.005 616.273 283.872C616.242 283.821 616.211 283.759 616.18 283.708C616.098 283.565 616.017 283.422 615.935 283.279C615.904 283.228 615.863 283.187 615.832 283.136C615.74 282.993 615.638 282.86 615.535 282.727C615.535 282.727 615.525 282.707 615.515 282.696C581.383 240.584 533.053 216.437 482.93 216.437C441.422 216.437 401.288 232.767 369.122 262.575C362.208 253.338 356.359 243.446 351.647 233.053C426.743 213.698 480.431 145.15 480.431 67.0055C480.431 45.4129 476.446 24.3211 468.589 4.30217C468.579 4.26129 468.558 4.23064 468.538 4.18976C468.497 4.08757 468.445 3.98538 468.404 3.88319C468.353 3.781 468.312 3.67881 468.251 3.57663C468.2 3.47444 468.138 3.38247 468.077 3.28028C468.015 3.18831 467.964 3.09634 467.903 3.00437C467.841 2.9124 467.78 2.83064 467.708 2.73867C467.636 2.6467 467.575 2.55473 467.503 2.46276C467.442 2.38101 467.37 2.30948 467.308 2.23795C467.226 2.14598 467.145 2.054 467.063 1.97225C466.991 1.91094 466.929 1.84963 466.858 1.77809C466.765 1.69634 466.673 1.61459 466.581 1.53284C466.509 1.47153 466.438 1.42043 466.356 1.35912C466.253 1.28759 466.161 1.21605 466.059 1.14452C465.977 1.09343 465.895 1.04233 465.813 0.991236C465.71 0.929923 465.608 0.868609 465.506 0.807295C465.413 0.756201 465.321 0.715325 465.229 0.674449C465.126 0.623355 465.024 0.57226 464.922 0.531384C464.819 0.490509 464.717 0.449633 464.625 0.418976C464.522 0.3781 464.42 0.337225 464.317 0.306568C464.215 0.275911 464.112 0.245254 464 0.224816C463.897 0.19416 463.785 0.163503 463.682 0.143065C463.58 0.122627 463.467 0.102189 463.365 0.0919704C463.252 0.0715325 463.149 0.0510946 463.037 0.0408757C462.934 0.0306568 462.822 0.0204379 462.709 0.0204379C462.596 0.0204379 462.484 0.0102189 462.371 0C462.258 0 462.146 0 462.033 0C461.93 0 461.818 0 461.715 0.0204379C461.582 0.0306568 461.439 0.0510947 461.306 0.0715325C461.224 0.0817514 461.152 0.0919704 461.07 0.102189C461.019 0.102189 460.968 0.112408 460.916 0.122627C381.64 16.5036 324.101 87.1062 324.101 168.009C324.101 186.904 327.144 205.37 333.157 223.049C316.941 225.573 300.162 225.573 283.946 223.049C289.959 205.37 293.001 186.894 293.001 168.009C292.96 87.1266 235.421 16.524 156.135 0.143065C156.094 0.143065 156.053 0.132846 156.002 0.122627C155.889 0.102189 155.776 0.0817514 155.653 0.0715325C155.561 0.0613136 155.459 0.0408757 155.367 0.0408757C155.213 0.0306568 155.049 0.0204379 154.895 0.0204379C154.834 0.0204379 154.783 0.0204379 154.721 0.0204379C154.537 0.0204379 154.352 0.0306568 154.168 0.0510946C154.137 0.0510946 154.107 0.0510946 154.076 0.0510946C153.871 0.0715325 153.666 0.102189 153.471 0.143065C153.461 0.143065 153.451 0.143065 153.441 0.143065C152.17 0.398538 150.992 1.01167 150.05 1.92116C150.05 1.92116 150.04 1.93138 150.03 1.9416C149.896 2.07444 149.763 2.20729 149.64 2.35035C149.62 2.38101 149.589 2.40145 149.569 2.43211C149.466 2.55473 149.364 2.68758 149.272 2.82042C149.231 2.87152 149.19 2.92261 149.159 2.98393C149.077 3.09634 149.005 3.21896 148.933 3.34159C148.893 3.42334 148.841 3.49487 148.8 3.57663C148.739 3.68903 148.688 3.80144 148.636 3.92407C148.595 4.01604 148.554 4.09779 148.513 4.19998C148.493 4.24086 148.473 4.28173 148.462 4.32261C140.605 24.3313 136.621 45.4231 136.621 67.026C136.621 145.17 190.308 213.719 265.394 233.073C260.682 243.476 254.833 253.358 247.908 262.596C215.743 232.797 175.618 216.457 134.101 216.457C83.9985 216.457 35.6686 240.605 1.50583 282.717C1.50583 282.717 1.49558 282.737 1.48534 282.748C1.3829 282.87 1.29071 283.003 1.19852 283.136C1.15754 283.197 1.11657 283.248 1.07559 283.31C0.993641 283.432 0.921935 283.555 0.860473 283.688C0.819498 283.759 0.778523 283.831 0.737548 283.902C0.686329 284.015 0.635111 284.127 0.583892 284.24C0.542917 284.332 0.501942 284.424 0.460968 284.515C0.419993 284.607 0.399505 284.71 0.35853 284.802C0.317555 284.914 0.276581 285.026 0.245849 285.149C0.225362 285.231 0.204874 285.313 0.184387 285.394C0.153656 285.527 0.122925 285.66 0.0921935 285.793C0.0819498 285.864 0.0717061 285.936 0.0614623 286.007C0.0409749 286.15 0.0204874 286.294 0.0102437 286.437C0.0102437 286.508 0.0102437 286.59 0.0102437 286.661C0.0102437 286.805 0 286.948 0 287.08C0 287.162 0 287.244 0.0102437 287.326C0.0102437 287.459 0.0204874 287.591 0.0409749 287.724C0.0512186 287.816 0.0717061 287.908 0.0819498 288C0.102437 288.123 0.112681 288.235 0.143412 288.358C0.1639 288.46 0.194631 288.562 0.225362 288.664C0.256093 288.767 0.27658 288.879 0.307312 288.981C0.338043 289.083 0.379018 289.186 0.419993 289.298C0.460968 289.4 0.491699 289.502 0.532674 289.594C0.573648 289.696 0.624867 289.799 0.676086 289.901C0.727304 290.003 0.768279 290.095 0.819498 290.197C0.870716 290.289 0.932179 290.381 0.983397 290.473C1.04486 290.565 1.09608 290.667 1.15754 290.759C1.219 290.851 1.29071 290.933 1.35217 291.025C1.42388 291.117 1.48534 291.209 1.55705 291.301C1.62875 291.393 1.72095 291.475 1.8029 291.567C1.8746 291.648 1.94631 291.72 2.01801 291.802C2.0385 291.822 2.04874 291.832 2.06923 291.853C34.2038 322.612 76.4592 339.555 121.04 339.555C169.995 339.555 216.081 318.984 248.718 282.87C280.197 320.721 301.708 407.388 301.708 466.055C301.708 469.785 304.741 472.81 308.479 472.81C312.218 472.81 315.251 469.785 315.251 466.055C315.251 407.388 336.773 320.721 368.241 282.88C400.878 318.984 446.964 339.555 495.919 339.555C540.49 339.555 582.735 322.612 614.89 291.853C614.91 291.832 614.92 291.822 614.941 291.802C615.023 291.72 615.095 291.638 615.166 291.567C615.248 291.485 615.33 291.393 615.402 291.311C615.474 291.229 615.535 291.137 615.597 291.056L615.627 291.004ZM457.956 14.6642C463.856 31.4641 466.858 49.0407 466.858 66.9851C466.858 139.57 416.592 203.152 346.525 220.371C340.614 203.592 337.613 186.015 337.613 168.02C337.613 95.4346 387.889 31.8524 457.966 14.6539L457.956 14.6642ZM150.163 66.9953C150.163 49.0407 153.164 31.4641 159.065 14.6744C229.142 31.8728 279.418 95.455 279.418 168.04C279.418 186.025 276.417 203.612 270.506 220.392C200.439 203.173 150.173 139.58 150.173 66.9953H150.163ZM121.071 326.004C82.1137 326.004 45.1031 311.964 16.1339 286.334C47.7255 249.924 89.3867 229.946 134.111 229.946C172.443 229.946 209.576 245.224 239.334 273.07C209.238 306.782 166.491 326.004 121.071 326.004ZM308.51 399.908C299.721 352.338 282.501 300.784 257.537 272.294C266.183 261.022 273.364 248.841 278.937 235.955C288.658 237.631 298.574 238.5 308.51 238.5C318.447 238.5 328.363 237.641 338.084 235.955C343.667 248.851 350.837 261.032 359.483 272.304C334.519 300.804 317.299 352.349 308.51 399.918V399.908ZM377.686 273.07C407.444 245.224 444.578 229.946 482.91 229.946C527.654 229.946 569.315 249.924 600.887 286.334C571.907 311.964 534.886 326.004 495.95 326.004C450.529 326.004 407.782 306.782 377.686 273.07Z" fill="#DBC8B5" fill-opacity="0.1"/>
</svg>
